{
	"asset":{
		"generator":"Khronos glTF Blender I/O v4.5.48",
		"version":"2.0"
	},
	"extensionsUsed":[
		"KHR_materials_unlit"
	],
	"scene":0,
	"scenes":[
		{
			"extras":{
				"FBXBundleSettings":{
					"path":"//Temporary\\",
					"recent":"{\"selection\": [\"earsA\", \"earsB\", \"earsC\", \"earsD\", \"earsE\", \"mouthA\", \"mouthB\", \"singleEar\", \"tail\", \"tailB\"], \"bundles\": [\"earsA\", \"earsB\", \"earsC\", \"earsD\", \"earsE\", \"mouthA\", \"mouthB\", \"single\", \"tail\", \"tailB\"]}"
				},
				"FBXBundle_modifier_rename":{},
				"FBXBundle_modifier_offset_transform":{},
				"FBXBundle_modifier_copy_modifiers":{},
				"FBXBundle_modifier_merge":{},
				"FBXBundle_modifier_collider":{},
				"FBXBundle_modifier_lod":{},
				"FBXBundle_modifier_vertex_ao":{}
			},
			"name":"Scene",
			"nodes":[
				0,
				1,
				2,
				3,
				4,
				5,
				6,
				7,
				8,
				9
			]
		}
	],
	"nodes":[
		{
			"mesh":0,
			"name":"tail"
		},
		{
			"mesh":1,
			"name":"singleEar"
		},
		{
			"mesh":2,
			"name":"earsA"
		},
		{
			"mesh":3,
			"name":"earsB"
		},
		{
			"mesh":4,
			"name":"earsC"
		},
		{
			"mesh":5,
			"name":"earsD"
		},
		{
			"mesh":6,
			"name":"mouthA"
		},
		{
			"mesh":7,
			"name":"tailB"
		},
		{
			"mesh":8,
			"name":"earsE"
		},
		{
			"mesh":9,
			"name":"mouthB"
		}
	],
	"materials":[
		{
			"extensions":{
				"KHR_materials_unlit":{}
			},
			"name":"skin",
			"pbrMetallicRoughness":{
				"metallicFactor":0,
				"roughnessFactor":0.9
			}
		}
	],
	"meshes":[
		{
			"name":"Cylinder.004",
			"primitives":[
				{
					"attributes":{
						"POSITION":0,
						"NORMAL":1,
						"TEXCOORD_0":2,
						"TANGENT":3
					},
					"indices":4,
					"material":0
				}
			]
		},
		{
			"name":"characterSmall.028",
			"primitives":[
				{
					"attributes":{
						"POSITION":5,
						"NORMAL":6,
						"TEXCOORD_0":7,
						"TANGENT":8
					},
					"indices":9,
					"material":0
				}
			]
		},
		{
			"name":"characterSmall.029",
			"primitives":[
				{
					"attributes":{
						"POSITION":10,
						"NORMAL":11,
						"TEXCOORD_0":12,
						"TANGENT":13
					},
					"indices":14,
					"material":0
				}
			]
		},
		{
			"name":"characterSmall.030",
			"primitives":[
				{
					"attributes":{
						"POSITION":15,
						"NORMAL":16,
						"TEXCOORD_0":17,
						"TANGENT":18
					},
					"indices":19,
					"material":0
				}
			]
		},
		{
			"name":"characterSmall.031",
			"primitives":[
				{
					"attributes":{
						"POSITION":20,
						"NORMAL":21,
						"TEXCOORD_0":22,
						"TANGENT":23
					},
					"indices":24,
					"material":0
				}
			]
		},
		{
			"name":"characterSmall.032",
			"primitives":[
				{
					"attributes":{
						"POSITION":25,
						"NORMAL":26,
						"TEXCOORD_0":27,
						"TANGENT":28
					},
					"indices":29,
					"material":0
				}
			]
		},
		{
			"name":"characterSmall.033",
			"primitives":[
				{
					"attributes":{
						"POSITION":30,
						"NORMAL":31,
						"TEXCOORD_0":32,
						"TANGENT":33
					},
					"indices":34,
					"material":0
				}
			]
		},
		{
			"name":"Icosphere",
			"primitives":[
				{
					"attributes":{
						"POSITION":35,
						"NORMAL":36,
						"TEXCOORD_0":37,
						"TANGENT":38
					},
					"indices":39,
					"material":0
				}
			]
		},
		{
			"name":"characterSmall.035",
			"primitives":[
				{
					"attributes":{
						"POSITION":40,
						"NORMAL":41,
						"TEXCOORD_0":42,
						"TANGENT":43
					},
					"indices":44,
					"material":0
				}
			]
		},
		{
			"name":"characterSmall.036",
			"primitives":[
				{
					"attributes":{
						"POSITION":45,
						"NORMAL":46,
						"TEXCOORD_0":47,
						"TANGENT":48
					},
					"indices":49,
					"material":0
				}
			]
		}
	],
	"accessors":[
		{
			"bufferView":0,
			"componentType":5126,
			"count":162,
			"max":[
				0.16325075924396515,
				0.1210477203130722,
				0.05256276577711105
			],
			"min":[
				-0.16325077414512634,
				-0.7377405166625977,
				-0.4993155896663666
			],
			"type":"VEC3"
		},
		{
			"bufferView":1,
			"componentType":5126,
			"count":162,
			"type":"VEC3"
		},
		{
			"bufferView":2,
			"componentType":5126,
			"count":162,
			"type":"VEC2"
		},
		{
			"bufferView":3,
			"componentType":5126,
			"count":162,
			"type":"VEC4"
		},
		{
			"bufferView":4,
			"componentType":5123,
			"count":792,
			"type":"SCALAR"
		},
		{
			"bufferView":5,
			"componentType":5126,
			"count":89,
			"max":[
				0.2098606824874878,
				0.5934395790100098,
				0.10313843190670013
			],
			"min":[
				-0.2098652720451355,
				-7.149125167416059e-07,
				-0.1501108556985855
			],
			"type":"VEC3"
		},
		{
			"bufferView":6,
			"componentType":5126,
			"count":89,
			"type":"VEC3"
		},
		{
			"bufferView":7,
			"componentType":5126,
			"count":89,
			"type":"VEC2"
		},
		{
			"bufferView":8,
			"componentType":5126,
			"count":89,
			"type":"VEC4"
		},
		{
			"bufferView":9,
			"componentType":5123,
			"count":324,
			"type":"SCALAR"
		},
		{
			"bufferView":10,
			"componentType":5126,
			"count":178,
			"max":[
				0.5215649604797363,
				0.58319091796875,
				0.10437498241662979
			],
			"min":[
				-0.5215651988983154,
				-0.01873922534286976,
				-0.15191054344177246
			],
			"type":"VEC3"
		},
		{
			"bufferView":11,
			"componentType":5126,
			"count":178,
			"type":"VEC3"
		},
		{
			"bufferView":12,
			"componentType":5126,
			"count":178,
			"type":"VEC2"
		},
		{
			"bufferView":13,
			"componentType":5126,
			"count":178,
			"type":"VEC4"
		},
		{
			"bufferView":14,
			"componentType":5123,
			"count":648,
			"type":"SCALAR"
		},
		{
			"bufferView":15,
			"componentType":5126,
			"count":179,
			"max":[
				1.0517301559448242,
				0.6849429607391357,
				0.1616307646036148
			],
			"min":[
				-1.0517314672470093,
				-0.037033561617136,
				-0.2352423518896103
			],
			"type":"VEC3"
		},
		{
			"bufferView":16,
			"componentType":5126,
			"count":179,
			"type":"VEC3"
		},
		{
			"bufferView":17,
			"componentType":5126,
			"count":179,
			"type":"VEC2"
		},
		{
			"bufferView":18,
			"componentType":5126,
			"count":179,
			"type":"VEC4"
		},
		{
			"bufferView":19,
			"componentType":5123,
			"count":648,
			"type":"SCALAR"
		},
		{
			"bufferView":20,
			"componentType":5126,
			"count":178,
			"max":[
				0.5679770708084106,
				0.5988311767578125,
				0.03007146716117859
			],
			"min":[
				-0.5679773092269897,
				-0.0030994403641670942,
				-0.2262139618396759
			],
			"type":"VEC3"
		},
		{
			"bufferView":21,
			"componentType":5126,
			"count":178,
			"type":"VEC3"
		},
		{
			"bufferView":22,
			"componentType":5126,
			"count":178,
			"type":"VEC2"
		},
		{
			"bufferView":23,
			"componentType":5126,
			"count":178,
			"type":"VEC4"
		},
		{
			"bufferView":24,
			"componentType":5123,
			"count":648,
			"type":"SCALAR"
		},
		{
			"bufferView":25,
			"componentType":5126,
			"count":179,
			"max":[
				1.0481548309326172,
				0.6993319988250732,
				0.01958271861076355
			],
			"min":[
				-1.0481557846069336,
				-0.022645236924290657,
				-0.3772903382778168
			],
			"type":"VEC3"
		},
		{
			"bufferView":26,
			"componentType":5126,
			"count":179,
			"type":"VEC3"
		},
		{
			"bufferView":27,
			"componentType":5126,
			"count":179,
			"type":"VEC2"
		},
		{
			"bufferView":28,
			"componentType":5126,
			"count":179,
			"type":"VEC4"
		},
		{
			"bufferView":29,
			"componentType":5123,
			"count":648,
			"type":"SCALAR"
		},
		{
			"bufferView":30,
			"componentType":5126,
			"count":59,
			"max":[
				0.26110514998435974,
				0.3097900450229645,
				0.3120378255844116
			],
			"min":[
				-0.26110514998435974,
				-0.3047337532043457,
				-0.0881747305393219
			],
			"type":"VEC3"
		},
		{
			"bufferView":31,
			"componentType":5126,
			"count":59,
			"type":"VEC3"
		},
		{
			"bufferView":32,
			"componentType":5126,
			"count":59,
			"type":"VEC2"
		},
		{
			"bufferView":33,
			"componentType":5126,
			"count":59,
			"type":"VEC4"
		},
		{
			"bufferView":34,
			"componentType":5123,
			"count":120,
			"type":"SCALAR"
		},
		{
			"bufferView":35,
			"componentType":5126,
			"count":58,
			"max":[
				0.18692678213119507,
				0.19654615223407745,
				0
			],
			"min":[
				-0.1869267225265503,
				-0.19654615223407745,
				-0.39309224486351013
			],
			"type":"VEC3"
		},
		{
			"bufferView":36,
			"componentType":5126,
			"count":58,
			"type":"VEC3"
		},
		{
			"bufferView":37,
			"componentType":5126,
			"count":58,
			"type":"VEC2"
		},
		{
			"bufferView":38,
			"componentType":5126,
			"count":58,
			"type":"VEC4"
		},
		{
			"bufferView":39,
			"componentType":5123,
			"count":240,
			"type":"SCALAR"
		},
		{
			"bufferView":40,
			"componentType":5126,
			"count":244,
			"max":[
				0.7044104933738708,
				0.9736328125,
				0.6044540405273438
			],
			"min":[
				-0.7184836268424988,
				-0.14590954780578613,
				-0.16444963216781616
			],
			"type":"VEC3"
		},
		{
			"bufferView":41,
			"componentType":5126,
			"count":244,
			"type":"VEC3"
		},
		{
			"bufferView":42,
			"componentType":5126,
			"count":244,
			"type":"VEC2"
		},
		{
			"bufferView":43,
			"componentType":5126,
			"count":244,
			"type":"VEC4"
		},
		{
			"bufferView":44,
			"componentType":5123,
			"count":972,
			"type":"SCALAR"
		},
		{
			"bufferView":45,
			"componentType":5126,
			"count":59,
			"max":[
				0.323477566242218,
				0.3097900450229645,
				0.3570142686367035
			],
			"min":[
				-0.323477566242218,
				-0.3047337532043457,
				-0.1093302071094513
			],
			"type":"VEC3"
		},
		{
			"bufferView":46,
			"componentType":5126,
			"count":59,
			"type":"VEC3"
		},
		{
			"bufferView":47,
			"componentType":5126,
			"count":59,
			"type":"VEC2"
		},
		{
			"bufferView":48,
			"componentType":5126,
			"count":59,
			"type":"VEC4"
		},
		{
			"bufferView":49,
			"componentType":5123,
			"count":120,
			"type":"SCALAR"
		}
	],
	"bufferViews":[
		{
			"buffer":0,
			"byteLength":1944,
			"byteOffset":0,
			"target":34962
		},
		{
			"buffer":0,
			"byteLength":1944,
			"byteOffset":1944,
			"target":34962
		},
		{
			"buffer":0,
			"byteLength":1296,
			"byteOffset":3888,
			"target":34962
		},
		{
			"buffer":0,
			"byteLength":2592,
			"byteOffset":5184,
			"target":34962
		},
		{
			"buffer":0,
			"byteLength":1584,
			"byteOffset":7776,
			"target":34963
		},
		{
			"buffer":0,
			"byteLength":1068,
			"byteOffset":9360,
			"target":34962
		},
		{
			"buffer":0,
			"byteLength":1068,
			"byteOffset":10428,
			"target":34962
		},
		{
			"buffer":0,
			"byteLength":712,
			"byteOffset":11496,
			"target":34962
		},
		{
			"buffer":0,
			"byteLength":1424,
			"byteOffset":12208,
			"target":34962
		},
		{
			"buffer":0,
			"byteLength":648,
			"byteOffset":13632,
			"target":34963
		},
		{
			"buffer":0,
			"byteLength":2136,
			"byteOffset":14280,
			"target":34962
		},
		{
			"buffer":0,
			"byteLength":2136,
			"byteOffset":16416,
			"target":34962
		},
		{
			"buffer":0,
			"byteLength":1424,
			"byteOffset":18552,
			"target":34962
		},
		{
			"buffer":0,
			"byteLength":2848,
			"byteOffset":19976,
			"target":34962
		},
		{
			"buffer":0,
			"byteLength":1296,
			"byteOffset":22824,
			"target":34963
		},
		{
			"buffer":0,
			"byteLength":2148,
			"byteOffset":24120,
			"target":34962
		},
		{
			"buffer":0,
			"byteLength":2148,
			"byteOffset":26268,
			"target":34962
		},
		{
			"buffer":0,
			"byteLength":1432,
			"byteOffset":28416,
			"target":34962
		},
		{
			"buffer":0,
			"byteLength":2864,
			"byteOffset":29848,
			"target":34962
		},
		{
			"buffer":0,
			"byteLength":1296,
			"byteOffset":32712,
			"target":34963
		},
		{
			"buffer":0,
			"byteLength":2136,
			"byteOffset":34008,
			"target":34962
		},
		{
			"buffer":0,
			"byteLength":2136,
			"byteOffset":36144,
			"target":34962
		},
		{
			"buffer":0,
			"byteLength":1424,
			"byteOffset":38280,
			"target":34962
		},
		{
			"buffer":0,
			"byteLength":2848,
			"byteOffset":39704,
			"target":34962
		},
		{
			"buffer":0,
			"byteLength":1296,
			"byteOffset":42552,
			"target":34963
		},
		{
			"buffer":0,
			"byteLength":2148,
			"byteOffset":43848,
			"target":34962
		},
		{
			"buffer":0,
			"byteLength":2148,
			"byteOffset":45996,
			"target":34962
		},
		{
			"buffer":0,
			"byteLength":1432,
			"byteOffset":48144,
			"target":34962
		},
		{
			"buffer":0,
			"byteLength":2864,
			"byteOffset":49576,
			"target":34962
		},
		{
			"buffer":0,
			"byteLength":1296,
			"byteOffset":52440,
			"target":34963
		},
		{
			"buffer":0,
			"byteLength":708,
			"byteOffset":53736,
			"target":34962
		},
		{
			"buffer":0,
			"byteLength":708,
			"byteOffset":54444,
			"target":34962
		},
		{
			"buffer":0,
			"byteLength":472,
			"byteOffset":55152,
			"target":34962
		},
		{
			"buffer":0,
			"byteLength":944,
			"byteOffset":55624,
			"target":34962
		},
		{
			"buffer":0,
			"byteLength":240,
			"byteOffset":56568,
			"target":34963
		},
		{
			"buffer":0,
			"byteLength":696,
			"byteOffset":56808,
			"target":34962
		},
		{
			"buffer":0,
			"byteLength":696,
			"byteOffset":57504,
			"target":34962
		},
		{
			"buffer":0,
			"byteLength":464,
			"byteOffset":58200,
			"target":34962
		},
		{
			"buffer":0,
			"byteLength":928,
			"byteOffset":58664,
			"target":34962
		},
		{
			"buffer":0,
			"byteLength":480,
			"byteOffset":59592,
			"target":34963
		},
		{
			"buffer":0,
			"byteLength":2928,
			"byteOffset":60072,
			"target":34962
		},
		{
			"buffer":0,
			"byteLength":2928,
			"byteOffset":63000,
			"target":34962
		},
		{
			"buffer":0,
			"byteLength":1952,
			"byteOffset":65928,
			"target":34962
		},
		{
			"buffer":0,
			"byteLength":3904,
			"byteOffset":67880,
			"target":34962
		},
		{
			"buffer":0,
			"byteLength":1944,
			"byteOffset":71784,
			"target":34963
		},
		{
			"buffer":0,
			"byteLength":708,
			"byteOffset":73728,
			"target":34962
		},
		{
			"buffer":0,
			"byteLength":708,
			"byteOffset":74436,
			"target":34962
		},
		{
			"buffer":0,
			"byteLength":472,
			"byteOffset":75144,
			"target":34962
		},
		{
			"buffer":0,
			"byteLength":944,
			"byteOffset":75616,
			"target":34962
		},
		{
			"buffer":0,
			"byteLength":240,
			"byteOffset":76560,
			"target":34963
		}
	],
	"buffers":[
		{
			"byteLength":76800,
			"uri":"accessoriesAnimals-3240b9683ce9495a360913cb94e7a28c.bin"
		}
	]
}
