{
	"asset":{
		"generator":"Khronos glTF Blender I/O v4.5.48",
		"version":"2.0"
	},
	"scene":0,
	"scenes":[
		{
			"name":"Scene",
			"nodes":[
				46
			]
		}
	],
	"nodes":[
		{
			"name":"LeftFootIK",
			"rotation":[
				-0.946128785610199,
				0.021870827302336693,
				-0.07550254464149475,
				0.3141041398048401
			],
			"scale":[
				0.9999999403953552,
				1,
				0.9999993443489075
			],
			"translation":[
				-0.0018214306328445673,
				0.24152180552482605,
				0.1800500452518463
			]
		},
		{
			"children":[
				0
			],
			"name":"LeftToeRoll",
			"rotation":[
				-0.015736017376184464,
				0.0020790763664990664,
				-0.9946247339248657,
				0.1023220419883728
			],
			"scale":[
				0.999992847442627,
				0.9999997615814209,
				0.9999998807907104
			],
			"translation":[
				-0.0286642387509346,
				0.30693289637565613,
				0.0010425355285406113
			]
		},
		{
			"children":[
				1
			],
			"name":"LeftHeelRoll",
			"rotation":[
				0.5075129270553589,
				-0.5082272291183472,
				0.49190735816955566,
				0.4921005368232727
			],
			"scale":[
				1,
				1.0000001192092896,
				1
			],
			"translation":[
				0.07085257023572922,
				0.17990152537822723,
				-0.022240443155169487
			]
		},
		{
			"name":"LeftFootRollCtrl",
			"rotation":[
				0.49999988079071045,
				0.5000001192092896,
				-0.5000000596046448,
				0.4999999403953552
			],
			"scale":[
				1,
				0.9999999403953552,
				1
			],
			"translation":[
				-4.364224537312111e-09,
				-4.1390805449736945e-08,
				-1.48147849543534e-08
			]
		},
		{
			"name":"LeftKneeCtrl",
			"rotation":[
				-0.7071065902709961,
				-2.557232066551017e-15,
				0.7071069478988647,
				3.8542103447549e-17
			],
			"translation":[
				-0.6179578304290771,
				-0.5414661169052124,
				0.028641218319535255
			]
		},
		{
			"children":[
				2,
				3,
				4
			],
			"name":"LeftFootCtrl",
			"rotation":[
				0.7071066498756409,
				-3.931013381475168e-08,
				-0.70710688829422,
				4.0728476591311846e-08
			],
			"scale":[
				1,
				0.9999999403953552,
				1
			],
			"translation":[
				0.3036327362060547,
				0.20890644192695618,
				-0.11117057502269745
			]
		},
		{
			"name":"RightFootIK",
			"rotation":[
				-0.948111891746521,
				-0.011444862931966782,
				0.04409297555685043,
				0.31465646624565125
			],
			"scale":[
				0.9999999403953552,
				1,
				0.9999998807907104
			],
			"translation":[
				0.0018214851152151823,
				0.24152180552482605,
				0.1800500452518463
			]
		},
		{
			"children":[
				6
			],
			"name":"RightToeRoll",
			"rotation":[
				0.015828650444746017,
				0.0011683108750730753,
				0.9946231842041016,
				0.10233654081821442
			],
			"scale":[
				0.9999918937683105,
				0.9999998807907104,
				0.9999999403953552
			],
			"translation":[
				0.028672656044363976,
				0.3069329261779785,
				-0.0007775127305649221
			]
		},
		{
			"children":[
				7
			],
			"name":"RightHeelRoll",
			"rotation":[
				0.5077617168426514,
				-0.5079771876335144,
				0.4916504919528961,
				0.49235862493515015
			],
			"translation":[
				0.07085259258747101,
				0.17990152537822723,
				0.02224038727581501
			]
		},
		{
			"name":"RightFootRollCtrl",
			"rotation":[
				0.49999988079071045,
				0.5000001192092896,
				-0.5000000596046448,
				0.4999999403953552
			],
			"scale":[
				1,
				0.9999999403953552,
				1
			],
			"translation":[
				1.1881695627380395e-10,
				-4.381881879567118e-08,
				-1.48147849543534e-08
			]
		},
		{
			"name":"RightKneeCtrl",
			"rotation":[
				-0.7071065902709961,
				-2.557232066551017e-15,
				0.7071069478988647,
				3.8542103447549e-17
			],
			"translation":[
				-0.6179578304290771,
				-0.5414661169052124,
				-0.028640752658247948
			]
		},
		{
			"children":[
				8,
				9,
				10
			],
			"name":"RightFootCtrl",
			"rotation":[
				0.7071066498756409,
				-3.931013381475168e-08,
				-0.70710688829422,
				4.0728476591311846e-08
			],
			"scale":[
				1,
				0.9999999403953552,
				1
			],
			"translation":[
				-0.30159491300582886,
				0.20890644192695618,
				-0.11117057502269745
			]
		},
		{
			"name":"Head",
			"rotation":[
				-0.1193469762802124,
				1.56550143382933e-15,
				-2.8454413936174205e-08,
				0.9928526282310486
			],
			"translation":[
				-7.382183753179561e-11,
				0.0987565740942955,
				4.495127470249827e-08
			]
		},
		{
			"children":[
				12
			],
			"name":"Neck",
			"rotation":[
				0.18852455914020538,
				-8.591758421795485e-15,
				4.4947576327558636e-08,
				0.9820684790611267
			],
			"translation":[
				-8.638934012594746e-11,
				0.28752821683883667,
				2.1054720189539466e-09
			]
		},
		{
			"name":"LeftHandIndex3",
			"rotation":[
				0.033263225108385086,
				-0.03622497618198395,
				0.03615317493677139,
				0.9981353878974915
			],
			"scale":[
				1,
				0.9999997615814209,
				0.9999999403953552
			],
			"translation":[
				8.381903171539307e-09,
				0.08908525109291077,
				3.9814040064811707e-07
			]
		},
		{
			"children":[
				14
			],
			"name":"LeftHandIndex2",
			"rotation":[
				0.11000749468803406,
				0.059472907334566116,
				0.06382478028535843,
				0.9900948405265808
			],
			"scale":[
				0.9999999403953552,
				0.9999998211860657,
				0.9999997615814209
			],
			"translation":[
				3.725290298461914e-09,
				0.11300679296255112,
				2.314336597919464e-07
			]
		},
		{
			"children":[
				15
			],
			"name":"LeftHandIndex1",
			"rotation":[
				0.032843466848134995,
				-0.07754817605018616,
				8.601097943028435e-05,
				0.9964475035667419
			],
			"scale":[
				1,
				1,
				1.0000001192092896
			],
			"translation":[
				0,
				0.08178042620420456,
				-1.909211277961731e-07
			]
		},
		{
			"name":"LeftHandThumb2",
			"rotation":[
				0.18969851732254028,
				-0.01519768126308918,
				-0.036544956266880035,
				0.981044352054596
			],
			"scale":[
				0.9999998807907104,
				0.9999999403953552,
				1
			],
			"translation":[
				-1.7881393432617188e-07,
				0.10598099231719971,
				8.940696716308594e-08
			]
		},
		{
			"children":[
				17
			],
			"name":"LeftHandThumb1",
			"rotation":[
				-0.3414135277271271,
				0.6418986320495605,
				0.4586500823497772,
				0.5109237432479858
			],
			"scale":[
				1.0000001192092896,
				1.000000238418579,
				1
			],
			"translation":[
				-0.06468107551336288,
				0.05718411132693291,
				0.01542541291564703
			]
		},
		{
			"children":[
				16,
				18
			],
			"name":"LeftHand",
			"rotation":[
				-0.028445584699511528,
				0.7233262062072754,
				-0.036565620452165604,
				0.6889506578445435
			],
			"scale":[
				0.9999998807907104,
				0.9999998807907104,
				0.9999999403953552
			],
			"translation":[
				-2.658925950527191e-07,
				0.38332200050354004,
				-7.450580596923828e-09
			]
		},
		{
			"children":[
				19
			],
			"name":"LeftForeArm",
			"rotation":[
				0.05858222395181656,
				0.013090011663734913,
				-0.01307827327400446,
				0.9981110692024231
			],
			"scale":[
				1.0000001192092896,
				1,
				1
			],
			"translation":[
				1.1573138181120157e-07,
				0.5143589973449707,
				-5.587935447692871e-09
			]
		},
		{
			"children":[
				20
			],
			"name":"LeftArm",
			"rotation":[
				0.14530375599861145,
				0.70318603515625,
				0.10166274011135101,
				0.6885353326797485
			],
			"scale":[
				1,
				0.9999998211860657,
				0.9999998807907104
			],
			"translation":[
				-7.450580596923828e-09,
				0.17930951714515686,
				-3.55415977537632e-07
			]
		},
		{
			"children":[
				21
			],
			"name":"LeftShoulder",
			"rotation":[
				-0.6128491163253784,
				-0.35169297456741333,
				-0.5761502981185913,
				0.410827100276947
			],
			"scale":[
				0.9999999403953552,
				0.9999999403953552,
				0.9999998807907104
			],
			"translation":[
				0.08828002214431763,
				0.2127913236618042,
				0.052277565002441406
			]
		},
		{
			"name":"RightHandIndex3",
			"rotation":[
				-0.03529132902622223,
				-0.024776821956038475,
				0.03417826443910599,
				0.9984850883483887
			],
			"translation":[
				7.450580596923828e-09,
				0.08908513188362122,
				2.612359821796417e-07
			]
		},
		{
			"children":[
				23
			],
			"name":"RightHandIndex2",
			"rotation":[
				-0.10899017751216888,
				0.0737222209572792,
				0.0655449852347374,
				0.9891360402107239
			],
			"scale":[
				0.9999999403953552,
				0.9999999403953552,
				1
			],
			"translation":[
				3.3527612686157227e-08,
				0.11300680786371231,
				-3.3387914299964905e-07
			]
		},
		{
			"children":[
				24
			],
			"name":"RightHandIndex1",
			"rotation":[
				-0.03284364193677902,
				-0.07754669338464737,
				-8.594473183620721e-05,
				0.9964476227760315
			],
			"scale":[
				1,
				0.9999998807907104,
				0.9999999403953552
			],
			"translation":[
				-1.862645149230957e-09,
				0.08178049325942993,
				-5.168840289115906e-08
			]
		},
		{
			"name":"RightHandThumb2",
			"rotation":[
				-0.1919749528169632,
				-0.024031072854995728,
				0.021597640588879585,
				0.9808678030967712
			],
			"scale":[
				1,
				0.9999998807907104,
				1
			],
			"translation":[
				1.7881393432617188e-07,
				0.10598090291023254,
				-2.2351741790771484e-08
			]
		},
		{
			"children":[
				26
			],
			"name":"RightHandThumb1",
			"rotation":[
				0.36430445313453674,
				-0.7348398566246033,
				0.44068682193756104,
				0.3648119866847992
			],
			"scale":[
				1,
				1,
				0.9999999403953552
			],
			"translation":[
				-0.06138278916478157,
				0.057184044271707535,
				-0.025568760931491852
			]
		},
		{
			"children":[
				25,
				27
			],
			"name":"RightHand",
			"rotation":[
				-0.004560832865536213,
				0.11025194823741913,
				-0.04610201716423035,
				0.9928234219551086
			],
			"scale":[
				0.9999998807907104,
				0.9999997615814209,
				0.9999999403953552
			],
			"translation":[
				-2.9802322387695312e-08,
				0.3833215832710266,
				2.5704503059387207e-07
			]
		},
		{
			"children":[
				28
			],
			"name":"RightForeArm",
			"rotation":[
				-0.01237217616289854,
				-0.10993756353855133,
				0.05873556807637215,
				0.9921244382858276
			],
			"scale":[
				1,
				0.9999998807907104,
				0.9999999403953552
			],
			"translation":[
				-7.450580596923828e-09,
				0.5143589973449707,
				1.5832483768463135e-08
			]
		},
		{
			"children":[
				29
			],
			"name":"RightArm",
			"rotation":[
				-0.0014117989921942353,
				-0.955563485622406,
				0.1773318499326706,
				0.2354779690504074
			],
			"scale":[
				0.9999999403953552,
				1.000000238418579,
				0.9999998211860657
			],
			"translation":[
				-6.51925802230835e-08,
				0.17930945754051208,
				1.341104507446289e-07
			]
		},
		{
			"children":[
				30
			],
			"name":"RightShoulder",
			"rotation":[
				0.6910271048545837,
				-0.47499701380729675,
				0.4795984625816345,
				0.2585434913635254
			],
			"scale":[
				0.9999998211860657,
				0.9999998807907104,
				1
			],
			"translation":[
				-0.0882800742983818,
				0.2127913236618042,
				0.052277520298957825
			]
		},
		{
			"children":[
				13,
				22,
				31
			],
			"name":"UpperChest",
			"rotation":[
				0.03746339678764343,
				-1.074798128102017e-12,
				8.931973383141667e-09,
				0.9992980360984802
			],
			"scale":[
				1,
				1,
				0.9999998807907104
			],
			"translation":[
				-4.895905902913e-11,
				0.2596140205860138,
				3.967117301328926e-09
			]
		},
		{
			"children":[
				32
			],
			"name":"Chest",
			"rotation":[
				-0.025739973410964012,
				2.5214916377080954e-07,
				1.5507518824620092e-08,
				0.9996686577796936
			],
			"scale":[
				1,
				1,
				1.0000001192092896
			],
			"translation":[
				-1.0552270168773248e-10,
				0.21135661005973816,
				7.178291294707151e-09
			]
		},
		{
			"children":[
				33
			],
			"name":"Spine",
			"rotation":[
				-0.032124269753694534,
				-1.3382059194100293e-07,
				-1.0712424725056735e-08,
				0.9994838833808899
			],
			"scale":[
				1,
				0.9999999403953552,
				1
			],
			"translation":[
				-1.5990044358038524e-11,
				0.32195180654525757,
				4.1515402227076947e-13
			]
		},
		{
			"name":"LeftToes",
			"rotation":[
				-0.01981951668858528,
				0.9522863626480103,
				-0.2982551157474518,
				0.06165808439254761
			],
			"scale":[
				1,
				0.9999998807907104,
				1.0000001192092896
			],
			"translation":[
				-3.119930624961853e-08,
				0.30125442147254944,
				-4.6566128730773926e-09
			]
		},
		{
			"children":[
				35
			],
			"name":"LeftFoot",
			"rotation":[
				-0.5169709920883179,
				-0.05002971738576889,
				-0.05364561825990677,
				0.8528541922569275
			],
			"scale":[
				1,
				0.9999999403953552,
				0.9999999403953552
			],
			"translation":[
				-4.773028194904327e-09,
				0.7308672070503235,
				-1.3154931366443634e-08
			]
		},
		{
			"children":[
				36
			],
			"name":"LeftLeg",
			"rotation":[
				0.038860633969306946,
				0.03430904075503349,
				0.06741810590028763,
				0.9963772296905518
			],
			"scale":[
				0.9999998807907104,
				1.0000001192092896,
				1.0000001192092896
			],
			"translation":[
				1.05355866253376e-08,
				0.5039018392562866,
				-1.4901161193847656e-08
			]
		},
		{
			"children":[
				37
			],
			"name":"LeftUpLeg",
			"rotation":[
				-0.9932323098182678,
				-0.10336202383041382,
				0.02129092812538147,
				0.04850335046648979
			],
			"scale":[
				0.9999999403953552,
				0.9999998807907104,
				0.9999999403953552
			],
			"translation":[
				0.1506689190864563,
				0.018369007855653763,
				8.201818957331852e-08
			]
		},
		{
			"name":"RightToes",
			"rotation":[
				-0.028262704610824585,
				-0.9539409279823303,
				0.29757368564605713,
				0.02545326016843319
			],
			"scale":[
				0.9999999403953552,
				0.9999998807907104,
				1
			],
			"translation":[
				1.7695128917694092e-08,
				0.3012544512748718,
				-9.313225746154785e-10
			]
		},
		{
			"children":[
				39
			],
			"name":"RightFoot",
			"rotation":[
				-0.5184503197669983,
				0.07862639427185059,
				0.03668885678052902,
				0.850694477558136
			],
			"scale":[
				0.9999998807907104,
				0.9999998807907104,
				0.9999997615814209
			],
			"translation":[
				-1.6996636986732483e-08,
				0.7308670282363892,
				2.2118911147117615e-09
			]
		},
		{
			"children":[
				40
			],
			"name":"RightLeg",
			"rotation":[
				0.03576848655939102,
				0.01001917477697134,
				-0.06910832971334457,
				0.9969173669815063
			],
			"scale":[
				0.9999999403953552,
				1,
				0.9999998807907104
			],
			"translation":[
				-4.912726581096649e-08,
				0.5039018988609314,
				-8.381903171539307e-09
			]
		},
		{
			"children":[
				41
			],
			"name":"RightUpLeg",
			"rotation":[
				-0.993187427520752,
				0.10108187794685364,
				0.023291660472750664,
				0.05309181287884712
			],
			"scale":[
				1.000000238418579,
				1,
				1
			],
			"translation":[
				-0.1506689041852951,
				0.01836901158094406,
				8.189540778857918e-08
			]
		},
		{
			"children":[
				34,
				38,
				42
			],
			"name":"Hips",
			"rotation":[
				9.301459067501128e-05,
				-2.638307989855093e-07,
				0.999998927116394,
				0.00144306814763695
			],
			"scale":[
				1.0000040531158447,
				1,
				0.9999999403953552
			],
			"translation":[
				0.000464598648250103,
				0.32195109128952026,
				-4.3881556166525115e-08
			]
		},
		{
			"children":[
				43
			],
			"name":"HipsCtrl",
			"rotation":[
				-9.301542741013691e-05,
				1.0731828758991924e-08,
				-0.9999989867210388,
				0.0014430714072659612
			],
			"scale":[
				0.9999999403953552,
				0.9999998807907104,
				1
			],
			"translation":[
				0.0005543182487599552,
				1.7208877801895142,
				0.06887967884540558
			]
		},
		{
			"mesh":0,
			"name":"characterLargeFemale",
			"skin":0
		},
		{
			"children":[
				45,
				5,
				11,
				44
			],
			"name":"Root"
		}
	],
	"materials":[
		{
			"doubleSided":true,
			"name":"skin",
			"pbrMetallicRoughness":{
				"baseColorFactor":[
					0.800000011920929,
					0.800000011920929,
					0.800000011920929,
					1
				],
				"metallicFactor":0,
				"roughnessFactor":0.5
			}
		}
	],
	"meshes":[
		{
			"name":"characterLargeFemale",
			"primitives":[
				{
					"attributes":{
						"POSITION":0,
						"NORMAL":1,
						"TEXCOORD_0":2,
						"TANGENT":3,
						"JOINTS_0":4,
						"WEIGHTS_0":5
					},
					"indices":6,
					"material":0
				}
			]
		}
	],
	"skins":[
		{
			"inverseBindMatrices":7,
			"joints":[
				5,
				2,
				1,
				0,
				3,
				4,
				11,
				8,
				7,
				6,
				9,
				10,
				44,
				43,
				34,
				33,
				32,
				13,
				12,
				22,
				21,
				20,
				19,
				16,
				15,
				14,
				18,
				17,
				31,
				30,
				29,
				28,
				25,
				24,
				23,
				27,
				26,
				38,
				37,
				36,
				35,
				42,
				41,
				40,
				39
			],
			"name":"Root"
		}
	],
	"accessors":[
		{
			"bufferView":0,
			"componentType":5126,
			"count":1131,
			"max":[
				1.4851243495941162,
				3.0932600498199463,
				0.3299892544746399
			],
			"min":[
				-1.4843987226486206,
				0.01052485965192318,
				-0.21077123284339905
			],
			"type":"VEC3"
		},
		{
			"bufferView":1,
			"componentType":5126,
			"count":1131,
			"type":"VEC3"
		},
		{
			"bufferView":2,
			"componentType":5126,
			"count":1131,
			"type":"VEC2"
		},
		{
			"bufferView":3,
			"componentType":5126,
			"count":1131,
			"type":"VEC4"
		},
		{
			"bufferView":4,
			"componentType":5121,
			"count":1131,
			"type":"VEC4"
		},
		{
			"bufferView":5,
			"componentType":5126,
			"count":1131,
			"type":"VEC4"
		},
		{
			"bufferView":6,
			"componentType":5123,
			"count":5316,
			"type":"SCALAR"
		},
		{
			"bufferView":7,
			"componentType":5126,
			"count":45,
			"type":"MAT4"
		}
	],
	"bufferViews":[
		{
			"buffer":0,
			"byteLength":13572,
			"byteOffset":0,
			"target":34962
		},
		{
			"buffer":0,
			"byteLength":13572,
			"byteOffset":13572,
			"target":34962
		},
		{
			"buffer":0,
			"byteLength":9048,
			"byteOffset":27144,
			"target":34962
		},
		{
			"buffer":0,
			"byteLength":18096,
			"byteOffset":36192,
			"target":34962
		},
		{
			"buffer":0,
			"byteLength":4524,
			"byteOffset":54288,
			"target":34962
		},
		{
			"buffer":0,
			"byteLength":18096,
			"byteOffset":58812,
			"target":34962
		},
		{
			"buffer":0,
			"byteLength":10632,
			"byteOffset":76908,
			"target":34963
		},
		{
			"buffer":0,
			"byteLength":2880,
			"byteOffset":87540
		}
	],
	"buffers":[
		{
			"byteLength":90420,
			"uri":"characterLargeFemale-c2a3d8466914506eabea4e9e3444ef6d.bin"
		}
	]
}
