{
	"asset":{
		"generator":"Khronos glTF Blender I/O v4.5.48",
		"version":"2.0"
	},
	"scene":0,
	"scenes":[
		{
			"name":"Scene",
			"nodes":[
				46
			]
		}
	],
	"nodes":[
		{
			"name":"LeftFootIK",
			"rotation":[
				-0.946128785610199,
				0.021870769560337067,
				-0.07550271600484848,
				0.31410399079322815
			],
			"scale":[
				1.0000001192092896,
				1,
				1
			],
			"translation":[
				-0.0018214760348200798,
				0.24152180552482605,
				0.18005000054836273
			]
		},
		{
			"children":[
				0
			],
			"name":"LeftToeRoll",
			"rotation":[
				-0.015585079789161682,
				0.002040378050878644,
				-0.9946258068084717,
				0.10233546793460846
			],
			"scale":[
				0.9999933242797852,
				1,
				0.9999999403953552
			],
			"translation":[
				-0.028668535873293877,
				0.31560996174812317,
				0.0010270895436406136
			]
		},
		{
			"children":[
				1
			],
			"name":"LeftHeelRoll",
			"rotation":[
				0.5074552893638611,
				-0.5081332325935364,
				0.4919903874397278,
				0.4921739399433136
			],
			"translation":[
				0.07953033596277237,
				0.17990143597126007,
				-0.022240450605750084
			]
		},
		{
			"name":"LeftFootRollCtrl",
			"rotation":[
				0.49999988079071045,
				0.5000001192092896,
				-0.5000000596046448,
				0.4999999403953552
			],
			"scale":[
				1,
				0.9999999403953552,
				1
			],
			"translation":[
				-1.9364581049785556e-09,
				-4.266126296670336e-08,
				1.0582974496742281e-08
			]
		},
		{
			"name":"LeftKneeCtrl",
			"rotation":[
				-0.7071065902709961,
				-2.55723185479278e-15,
				0.7071069478988647,
				3.854240454129197e-17
			],
			"translation":[
				-0.6179577708244324,
				-0.5867005586624146,
				0.17014972865581512
			]
		},
		{
			"children":[
				2,
				3,
				4
			],
			"name":"LeftFootCtrl",
			"rotation":[
				0.7071066498756409,
				-3.931015868374743e-08,
				-0.70710688829422,
				4.072849080216656e-08
			],
			"scale":[
				1,
				0.9999999403953552,
				1
			],
			"translation":[
				0.30209043622016907,
				0.19320479035377502,
				-0.12214523553848267
			]
		},
		{
			"name":"RightFootIK",
			"rotation":[
				-0.948111891746521,
				-0.011444933712482452,
				0.044092874974012375,
				0.3146563768386841
			],
			"scale":[
				1,
				0.9999999403953552,
				1.000000238418579
			],
			"translation":[
				0.0018214095616713166,
				0.24152174592018127,
				0.18004994094371796
			]
		},
		{
			"children":[
				6
			],
			"name":"RightToeRoll",
			"rotation":[
				0.015826288610696793,
				0.0011916682124137878,
				0.994621992111206,
				0.10234875231981277
			],
			"scale":[
				0.9999983310699463,
				0.9999999403953552,
				1
			],
			"translation":[
				0.028676191344857216,
				0.315609872341156,
				-0.0007843650528229773
			]
		},
		{
			"children":[
				7
			],
			"name":"RightHeelRoll",
			"rotation":[
				0.5077672600746155,
				-0.5079717636108398,
				0.4916684031486511,
				0.492340624332428
			],
			"scale":[
				1,
				1.0000001192092896,
				1.0000001192092896
			],
			"translation":[
				0.07953035831451416,
				0.17990143597126007,
				0.0222404096275568
			]
		},
		{
			"name":"RightFootRollCtrl",
			"rotation":[
				0.49999988079071045,
				0.5000001192092896,
				-0.5000000596046448,
				0.4999999403953552
			],
			"scale":[
				1,
				0.9999999403953552,
				1
			],
			"translation":[
				2.5465833886073597e-09,
				-4.508925499635552e-08,
				1.0582974496742281e-08
			]
		},
		{
			"name":"RightKneeCtrl",
			"rotation":[
				-0.7071065902709961,
				-2.55723185479278e-15,
				0.7071069478988647,
				3.854240454129197e-17
			],
			"translation":[
				-0.6179578900337219,
				-0.5867005586624146,
				-0.16023710370063782
			]
		},
		{
			"children":[
				8,
				9,
				10
			],
			"name":"RightFootCtrl",
			"rotation":[
				0.7071066498756409,
				-3.931015868374743e-08,
				-0.70710688829422,
				4.072849080216656e-08
			],
			"scale":[
				1,
				0.9999999403953552,
				1
			],
			"translation":[
				-0.3031372129917145,
				0.19320479035377502,
				-0.12214523553848267
			]
		},
		{
			"name":"Head",
			"rotation":[
				-0.08293159306049347,
				-1.1879867400921285e-07,
				-9.886217178234347e-09,
				0.9965552091598511
			],
			"scale":[
				1,
				0.9999999403953552,
				0.9999998211860657
			],
			"translation":[
				-3.127587078211036e-11,
				0.18746958673000336,
				1.4776996515308838e-08
			]
		},
		{
			"children":[
				12
			],
			"name":"Neck",
			"rotation":[
				0.08976206183433533,
				1.187280957992698e-07,
				1.0700470731705991e-08,
				0.9959632158279419
			],
			"translation":[
				6.856169278146584e-15,
				0.2089904546737671,
				5.255258034297938e-13
			]
		},
		{
			"name":"LeftHandIndex3",
			"rotation":[
				0.03033635765314102,
				-0.033514298498630524,
				0.017931487411260605,
				0.9988167881965637
			],
			"scale":[
				0.9999999403953552,
				0.9999999403953552,
				0.9999998807907104
			],
			"translation":[
				-1.1175870895385742e-08,
				0.10245641320943832,
				3.390014171600342e-07
			]
		},
		{
			"children":[
				14
			],
			"name":"LeftHandIndex2",
			"rotation":[
				0.06800024956464767,
				0.060593780130147934,
				0.027790624648332596,
				0.9954557418823242
			],
			"scale":[
				1,
				1.0000001192092896,
				1
			],
			"translation":[
				-1.210719347000122e-08,
				0.12974992394447327,
				-1.1338852345943451e-07
			]
		},
		{
			"children":[
				15
			],
			"name":"LeftHandIndex1",
			"rotation":[
				0.046697262674570084,
				-0.06826917827129364,
				0.009897122159600258,
				0.9965243339538574
			],
			"translation":[
				-9.313225746154785e-10,
				0.12315770983695984,
				1.0221265256404877e-07
			]
		},
		{
			"name":"LeftHandThumb2",
			"rotation":[
				0.16272452473640442,
				-0.010330812074244022,
				-0.00855288002640009,
				0.9865803718566895
			],
			"scale":[
				0.9999998807907104,
				1.0000001192092896,
				1
			],
			"translation":[
				-6.705522537231445e-08,
				0.10601909458637238,
				1.30385160446167e-08
			]
		},
		{
			"children":[
				17
			],
			"name":"LeftHandThumb1",
			"rotation":[
				-0.34239739179611206,
				0.6466032862663269,
				0.4312775731086731,
				0.5278900861740112
			],
			"scale":[
				1.0000001192092896,
				1.000000238418579,
				1
			],
			"translation":[
				-0.09422389417886734,
				0.07018931210041046,
				0.02420329861342907
			]
		},
		{
			"children":[
				16,
				18
			],
			"name":"LeftHand",
			"rotation":[
				-0.003987458068877459,
				0.7174656391143799,
				-0.02022617682814598,
				0.6962888240814209
			],
			"scale":[
				0.9999998807907104,
				0.9999999403953552,
				0.9999999403953552
			],
			"translation":[
				1.5087425708770752e-07,
				0.3246803879737854,
				3.725290298461914e-09
			]
		},
		{
			"children":[
				19
			],
			"name":"LeftForeArm",
			"rotation":[
				0.03954600170254707,
				0.016757309436798096,
				0.022691132500767708,
				0.9988195300102234
			],
			"scale":[
				0.9999999403953552,
				1,
				1
			],
			"translation":[
				1.9885192159563303e-07,
				0.3032821714878082,
				7.450580596923828e-09
			]
		},
		{
			"children":[
				20
			],
			"name":"LeftArm",
			"rotation":[
				0.06130614131689072,
				0.7122008204460144,
				0.04930843412876129,
				0.6975530385971069
			],
			"scale":[
				1.0000001192092896,
				1.0000001192092896,
				1.0000001192092896
			],
			"translation":[
				5.587935447692871e-09,
				0.2588024139404297,
				7.078051567077637e-08
			]
		},
		{
			"children":[
				21
			],
			"name":"LeftShoulder",
			"rotation":[
				-0.5868818759918213,
				-0.41065412759780884,
				-0.5482942461967468,
				0.4316321909427643
			],
			"scale":[
				1.000000238418579,
				1.0000001192092896,
				1
			],
			"translation":[
				0.08828039467334747,
				0.21920789778232574,
				0.06496106088161469
			]
		},
		{
			"name":"RightHandIndex3",
			"rotation":[
				-0.03131783381104469,
				-0.02752675488591194,
				0.01615540124475956,
				0.9989997148513794
			],
			"scale":[
				1.0000001192092896,
				1.0000001192092896,
				1.0000001192092896
			],
			"translation":[
				-2.9802322387695312e-08,
				0.10245652496814728,
				-8.568167686462402e-08
			]
		},
		{
			"children":[
				23
			],
			"name":"RightHandIndex2",
			"rotation":[
				-0.06755560636520386,
				0.07333085685968399,
				0.0288553349673748,
				0.9945985078811646
			],
			"scale":[
				1,
				0.9999999403953552,
				1
			],
			"translation":[
				-1.862645149230957e-08,
				0.12975020706653595,
				-3.841705620288849e-08
			]
		},
		{
			"children":[
				24
			],
			"name":"RightHandIndex1",
			"rotation":[
				-0.046748243272304535,
				-0.08672554045915604,
				0.009652500972151756,
				0.9950880408287048
			],
			"scale":[
				0.9999999403953552,
				0.9999998211860657,
				0.9999999403953552
			],
			"translation":[
				2.7939677238464355e-09,
				0.12315770983695984,
				-5.122274160385132e-08
			]
		},
		{
			"name":"RightHandThumb2",
			"rotation":[
				-0.1578904539346695,
				-0.02911713346838951,
				0.04028803110122681,
				0.9862046837806702
			],
			"scale":[
				0.9999998807907104,
				1,
				1
			],
			"translation":[
				-1.7881393432617188e-07,
				0.10601913928985596,
				7.450580596923828e-09
			]
		},
		{
			"children":[
				26
			],
			"name":"RightHandThumb1",
			"rotation":[
				0.36389443278312683,
				-0.7429997324943542,
				0.41330036520957947,
				0.38041436672210693
			],
			"scale":[
				0.9999998807907104,
				0.9999994039535522,
				0.9999998807907104
			],
			"translation":[
				-0.08914222568273544,
				0.07018928974866867,
				-0.03895648941397667
			]
		},
		{
			"children":[
				25,
				27
			],
			"name":"RightHand",
			"rotation":[
				-0.01103988941758871,
				0.11964116245508194,
				-0.01741032302379608,
				0.9926031827926636
			],
			"scale":[
				1.0000001192092896,
				1.000000238418579,
				0.9999999403953552
			],
			"translation":[
				-2.60770320892334e-08,
				0.3246806263923645,
				-1.4994293451309204e-07
			]
		},
		{
			"children":[
				28
			],
			"name":"RightForeArm",
			"rotation":[
				0.02207883447408676,
				-0.14086754620075226,
				0.03989106044173241,
				0.9889780282974243
			],
			"scale":[
				1,
				0.9999999403953552,
				1.0000001192092896
			],
			"translation":[
				2.9802322387695312e-08,
				0.303282231092453,
				1.6624107956886292e-07
			]
		},
		{
			"children":[
				29
			],
			"name":"RightArm",
			"rotation":[
				0.002472867490723729,
				-0.9609922170639038,
				0.07863616943359375,
				0.2651495039463043
			],
			"scale":[
				0.9999999403953552,
				0.9999997019767761,
				1
			],
			"translation":[
				1.1175870895385742e-08,
				0.2588023841381073,
				-3.725290298461914e-08
			]
		},
		{
			"children":[
				30
			],
			"name":"RightShoulder",
			"rotation":[
				0.658379077911377,
				-0.5076113939285278,
				0.459993451833725,
				0.31188732385635376
			],
			"scale":[
				0.9999999403953552,
				0.9999998211860657,
				0.9999999403953552
			],
			"translation":[
				-0.08828041702508926,
				0.21920789778232574,
				0.06496106088161469
			]
		},
		{
			"children":[
				13,
				22,
				31
			],
			"name":"UpperChest",
			"rotation":[
				0.07671753317117691,
				-1.1885801143307617e-07,
				9.145448842673431e-09,
				0.9970528483390808
			],
			"scale":[
				1,
				0.9999999403953552,
				1
			],
			"translation":[
				-2.6267987784933666e-11,
				0.19598282873630524,
				-1.0556748808454586e-09
			]
		},
		{
			"children":[
				32
			],
			"name":"Chest",
			"rotation":[
				-0.021892912685871124,
				1.2794305348506896e-07,
				7.613290442520793e-09,
				0.9997603893280029
			],
			"translation":[
				4.4268005927605714e-11,
				0.3192213475704193,
				3.735153963901894e-09
			]
		},
		{
			"children":[
				33
			],
			"name":"Spine",
			"rotation":[
				-0.05487074702978134,
				-9.522101329650923e-09,
				-9.496705644096437e-09,
				0.998493492603302
			],
			"scale":[
				1,
				0.9999999403953552,
				0.9999999403953552
			],
			"translation":[
				-1.4940900079640773e-12,
				0.32195186614990234,
				5.255240687063178e-13
			]
		},
		{
			"name":"LeftToes",
			"rotation":[
				-0.013782789930701256,
				0.953026294708252,
				-0.29582613706588745,
				0.0635441467165947
			],
			"scale":[
				0.9999999403953552,
				1.000000238418579,
				0.9999999403953552
			],
			"translation":[
				-1.0360963642597198e-08,
				0.30125442147254944,
				1.5832483768463135e-08
			]
		},
		{
			"children":[
				35
			],
			"name":"LeftFoot",
			"rotation":[
				-0.5864040851593018,
				-0.0749935433268547,
				-0.024686940014362335,
				0.8061617612838745
			],
			"scale":[
				1,
				0.9999998807907104,
				0.9999999403953552
			],
			"translation":[
				1.7695128917694092e-08,
				0.4132072925567627,
				2.9103830456733704e-09
			]
		},
		{
			"children":[
				36
			],
			"name":"LeftLeg",
			"rotation":[
				0.12489017844200134,
				0.041403673589229584,
				0.001831150148063898,
				0.9913046360015869
			],
			"scale":[
				0.9999998807907104,
				0.9999998807907104,
				0.9999998807907104
			],
			"translation":[
				-2.9569491744041443e-08,
				0.42563238739967346,
				4.6566128730773926e-09
			]
		},
		{
			"children":[
				37
			],
			"name":"LeftUpLeg",
			"rotation":[
				-0.9960270524024963,
				-0.07207301259040833,
				0.021954460069537163,
				0.04747344180941582
			],
			"scale":[
				0.9999979734420776,
				0.9999998807907104,
				0.9999990463256836
			],
			"translation":[
				0.18818755447864532,
				0.08092064410448074,
				0.0025912520941346884
			]
		},
		{
			"name":"RightToes",
			"rotation":[
				-0.022159643471240997,
				-0.9547519087791443,
				0.29531675577163696,
				0.027309413999319077
			],
			"scale":[
				1,
				1.0000001192092896,
				1.0000001192092896
			],
			"translation":[
				1.4901161193847656e-08,
				0.3012545108795166,
				-9.313225746154785e-10
			]
		},
		{
			"children":[
				39
			],
			"name":"RightFoot",
			"rotation":[
				-0.586898148059845,
				0.10200941562652588,
				0.005472077522426844,
				0.8031903505325317
			],
			"scale":[
				1,
				1,
				0.9999999403953552
			],
			"translation":[
				2.7939677238464355e-09,
				0.41320720314979553,
				6.1409082263708115e-09
			]
		},
		{
			"children":[
				40
			],
			"name":"RightLeg",
			"rotation":[
				0.12467925995588303,
				0.0027058995328843594,
				-0.007483585737645626,
				0.992165207862854
			],
			"scale":[
				0.9999999403953552,
				0.9999998807907104,
				1
			],
			"translation":[
				1.257285475730896e-08,
				0.4256325662136078,
				-7.450580596923828e-09
			]
		},
		{
			"children":[
				41
			],
			"name":"RightUpLeg",
			"rotation":[
				-0.9960090517997742,
				0.06987056881189346,
				0.022754136472940445,
				0.0506591759622097
			],
			"scale":[
				0.9999980330467224,
				0.9999999403953552,
				0.9999989867210388
			],
			"translation":[
				-0.18818755447864532,
				0.08092064410448074,
				0.0025912525597959757
			]
		},
		{
			"children":[
				34,
				38,
				42
			],
			"name":"Hips",
			"rotation":[
				9.301527461502701e-05,
				-4.625808625036143e-09,
				0.999998927116394,
				0.001443072222173214
			],
			"scale":[
				1,
				1,
				0.9999998807907104
			],
			"translation":[
				0.00046459908480755985,
				0.3219510316848755,
				-4.243113949087274e-08
			]
		},
		{
			"children":[
				43
			],
			"name":"HipsCtrl",
			"rotation":[
				-9.301501995651051e-05,
				4.05375715217815e-08,
				-0.9999989867210388,
				0.0014430719893425703
			],
			"scale":[
				0.9999999403953552,
				1.000000238418579,
				1
			],
			"translation":[
				-0.0009879873832687736,
				1.238116979598999,
				0.05790501832962036
			]
		},
		{
			"mesh":0,
			"name":"characterSmall",
			"skin":0
		},
		{
			"children":[
				45,
				5,
				11,
				44
			],
			"name":"Root"
		}
	],
	"materials":[
		{
			"doubleSided":true,
			"name":"skin",
			"pbrMetallicRoughness":{
				"baseColorFactor":[
					0.800000011920929,
					0.800000011920929,
					0.800000011920929,
					1
				],
				"metallicFactor":0,
				"roughnessFactor":0.5
			}
		}
	],
	"meshes":[
		{
			"name":"characterSmall",
			"primitives":[
				{
					"attributes":{
						"POSITION":0,
						"NORMAL":1,
						"TEXCOORD_0":2,
						"TANGENT":3,
						"JOINTS_0":4,
						"WEIGHTS_0":5
					},
					"indices":6,
					"material":0
				}
			]
		}
	],
	"skins":[
		{
			"inverseBindMatrices":7,
			"joints":[
				5,
				2,
				1,
				0,
				3,
				4,
				11,
				8,
				7,
				6,
				9,
				10,
				44,
				43,
				34,
				33,
				32,
				13,
				12,
				22,
				21,
				20,
				19,
				16,
				15,
				14,
				18,
				17,
				31,
				30,
				29,
				28,
				25,
				24,
				23,
				27,
				26,
				38,
				37,
				36,
				35,
				42,
				41,
				40,
				39
			],
			"name":"Root"
		}
	],
	"accessors":[
		{
			"bufferView":0,
			"componentType":5126,
			"count":997,
			"max":[
				1.4338146448135376,
				3.58259916305542,
				0.6735142469406128
			],
			"min":[
				-1.434799313545227,
				-0.0003185351670254022,
				-0.703786313533783
			],
			"type":"VEC3"
		},
		{
			"bufferView":1,
			"componentType":5126,
			"count":997,
			"type":"VEC3"
		},
		{
			"bufferView":2,
			"componentType":5126,
			"count":997,
			"type":"VEC2"
		},
		{
			"bufferView":3,
			"componentType":5126,
			"count":997,
			"type":"VEC4"
		},
		{
			"bufferView":4,
			"componentType":5121,
			"count":997,
			"type":"VEC4"
		},
		{
			"bufferView":5,
			"componentType":5126,
			"count":997,
			"type":"VEC4"
		},
		{
			"bufferView":6,
			"componentType":5123,
			"count":4656,
			"type":"SCALAR"
		},
		{
			"bufferView":7,
			"componentType":5126,
			"count":45,
			"type":"MAT4"
		}
	],
	"bufferViews":[
		{
			"buffer":0,
			"byteLength":11964,
			"byteOffset":0,
			"target":34962
		},
		{
			"buffer":0,
			"byteLength":11964,
			"byteOffset":11964,
			"target":34962
		},
		{
			"buffer":0,
			"byteLength":7976,
			"byteOffset":23928,
			"target":34962
		},
		{
			"buffer":0,
			"byteLength":15952,
			"byteOffset":31904,
			"target":34962
		},
		{
			"buffer":0,
			"byteLength":3988,
			"byteOffset":47856,
			"target":34962
		},
		{
			"buffer":0,
			"byteLength":15952,
			"byteOffset":51844,
			"target":34962
		},
		{
			"buffer":0,
			"byteLength":9312,
			"byteOffset":67796,
			"target":34963
		},
		{
			"buffer":0,
			"byteLength":2880,
			"byteOffset":77108
		}
	],
	"buffers":[
		{
			"byteLength":79988,
			"uri":"characterSmall-02237edb978f46db594947c9cc212d20.bin"
		}
	]
}
