{
	"asset":{
		"generator":"Khronos glTF Blender I/O v4.5.48",
		"version":"2.0"
	},
	"scene":0,
	"scenes":[
		{
			"name":"Scene",
			"nodes":[
				46
			]
		}
	],
	"nodes":[
		{
			"name":"LeftFootIK",
			"rotation":[
				-0.946128785610199,
				0.021870827302336693,
				-0.07550254464149475,
				0.3141041398048401
			],
			"scale":[
				0.9999999403953552,
				1,
				0.9999993443489075
			],
			"translation":[
				-0.0018214306328445673,
				0.24152180552482605,
				0.1800500452518463
			]
		},
		{
			"children":[
				0
			],
			"name":"LeftToeRoll",
			"rotation":[
				-0.015736017376184464,
				0.0020790763664990664,
				-0.9946247339248657,
				0.1023220419883728
			],
			"scale":[
				0.999992847442627,
				0.9999997615814209,
				0.9999998807907104
			],
			"translation":[
				-0.0286642387509346,
				0.30693289637565613,
				0.0010425355285406113
			]
		},
		{
			"children":[
				1
			],
			"name":"LeftHeelRoll",
			"rotation":[
				0.5075129270553589,
				-0.5082272291183472,
				0.49190735816955566,
				0.4921005368232727
			],
			"scale":[
				1,
				1.0000001192092896,
				1
			],
			"translation":[
				0.07085257023572922,
				0.17990152537822723,
				-0.022240443155169487
			]
		},
		{
			"name":"LeftFootRollCtrl",
			"rotation":[
				0.49999988079071045,
				0.5000001192092896,
				-0.5000000596046448,
				0.4999999403953552
			],
			"scale":[
				1,
				0.9999999403953552,
				1
			],
			"translation":[
				-4.364224537312111e-09,
				-4.1390805449736945e-08,
				-1.48147849543534e-08
			]
		},
		{
			"name":"LeftKneeCtrl",
			"rotation":[
				-0.7071065902709961,
				-2.557232066551017e-15,
				0.7071069478988647,
				3.8542103447549e-17
			],
			"translation":[
				-0.6179578304290771,
				-0.5414661169052124,
				0.028641218319535255
			]
		},
		{
			"children":[
				2,
				3,
				4
			],
			"name":"LeftFootCtrl",
			"rotation":[
				0.7071066498756409,
				-3.931013381475168e-08,
				-0.70710688829422,
				4.0728476591311846e-08
			],
			"scale":[
				1,
				0.9999999403953552,
				1
			],
			"translation":[
				0.3036327362060547,
				0.20890644192695618,
				-0.11117057502269745
			]
		},
		{
			"name":"RightFootIK",
			"rotation":[
				-0.948111891746521,
				-0.011444862931966782,
				0.04409297555685043,
				0.31465646624565125
			],
			"scale":[
				0.9999999403953552,
				1,
				0.9999998807907104
			],
			"translation":[
				0.0018214851152151823,
				0.24152180552482605,
				0.1800500452518463
			]
		},
		{
			"children":[
				6
			],
			"name":"RightToeRoll",
			"rotation":[
				0.015828650444746017,
				0.0011683108750730753,
				0.9946231842041016,
				0.10233654081821442
			],
			"scale":[
				0.9999918937683105,
				0.9999998807907104,
				0.9999999403953552
			],
			"translation":[
				0.028672656044363976,
				0.3069329261779785,
				-0.0007775127305649221
			]
		},
		{
			"children":[
				7
			],
			"name":"RightHeelRoll",
			"rotation":[
				0.5077617168426514,
				-0.5079771876335144,
				0.4916504919528961,
				0.49235862493515015
			],
			"translation":[
				0.07085259258747101,
				0.17990152537822723,
				0.02224038727581501
			]
		},
		{
			"name":"RightFootRollCtrl",
			"rotation":[
				0.49999988079071045,
				0.5000001192092896,
				-0.5000000596046448,
				0.4999999403953552
			],
			"scale":[
				1,
				0.9999999403953552,
				1
			],
			"translation":[
				1.1881695627380395e-10,
				-4.381881879567118e-08,
				-1.48147849543534e-08
			]
		},
		{
			"name":"RightKneeCtrl",
			"rotation":[
				-0.7071065902709961,
				-2.557232066551017e-15,
				0.7071069478988647,
				3.8542103447549e-17
			],
			"translation":[
				-0.6179578304290771,
				-0.5414661169052124,
				-0.028640752658247948
			]
		},
		{
			"children":[
				8,
				9,
				10
			],
			"name":"RightFootCtrl",
			"rotation":[
				0.7071066498756409,
				-3.931013381475168e-08,
				-0.70710688829422,
				4.0728476591311846e-08
			],
			"scale":[
				1,
				0.9999999403953552,
				1
			],
			"translation":[
				-0.30159491300582886,
				0.20890644192695618,
				-0.11117057502269745
			]
		},
		{
			"name":"Head",
			"rotation":[
				-0.1193469762802124,
				1.56550143382933e-15,
				-2.8454413936174205e-08,
				0.9928526282310486
			],
			"translation":[
				-7.382183753179561e-11,
				0.0987565740942955,
				4.495127470249827e-08
			]
		},
		{
			"children":[
				12
			],
			"name":"Neck",
			"rotation":[
				0.18852455914020538,
				-8.591758421795485e-15,
				4.4947576327558636e-08,
				0.9820684790611267
			],
			"translation":[
				-8.638934012594746e-11,
				0.28752821683883667,
				2.1054720189539466e-09
			]
		},
		{
			"name":"LeftHandIndex3",
			"rotation":[
				0.09970612078905106,
				-0.03874418884515762,
				-0.005197618156671524,
				0.9942488074302673
			],
			"scale":[
				0.9999998807907104,
				1,
				0.9999999403953552
			],
			"translation":[
				0,
				0.10336644947528839,
				1.8998980522155762e-07
			]
		},
		{
			"children":[
				14
			],
			"name":"LeftHandIndex2",
			"rotation":[
				0.055844392627477646,
				0.06442370265722275,
				0.04544848948717117,
				0.9953217506408691
			],
			"scale":[
				1,
				0.9999999403953552,
				0.9999998807907104
			],
			"translation":[
				1.6763806343078613e-08,
				0.08915477991104126,
				-1.708976924419403e-07
			]
		},
		{
			"children":[
				15
			],
			"name":"LeftHandIndex1",
			"rotation":[
				0.07728519290685654,
				-0.07735799998044968,
				0.00020237339776940644,
				0.994003415107727
			],
			"scale":[
				0.9999999403953552,
				0.9999999403953552,
				0.9999999403953552
			],
			"translation":[
				1.6298145055770874e-08,
				0.12440158426761627,
				-4.6566128730773926e-07
			]
		},
		{
			"name":"LeftHandThumb2",
			"rotation":[
				0.18554270267486572,
				-0.023679815232753754,
				0.016924144700169563,
				0.9822050929069519
			],
			"scale":[
				0.9999999403953552,
				1.0000001192092896,
				0.9999999403953552
			],
			"translation":[
				1.7881393432617188e-07,
				0.10562486946582794,
				-1.8998980522155762e-07
			]
		},
		{
			"children":[
				17
			],
			"name":"LeftHandThumb1",
			"rotation":[
				-0.3352019786834717,
				0.6305674314498901,
				0.4697878062725067,
				0.5189641714096069
			],
			"scale":[
				0.9999998807907104,
				0.9999999403953552,
				1
			],
			"translation":[
				-0.06431043893098831,
				0.07430156320333481,
				0.01081901229918003
			]
		},
		{
			"children":[
				16,
				18
			],
			"name":"LeftHand",
			"rotation":[
				-0.04682730510830879,
				0.7236853837966919,
				-0.02323058433830738,
				0.6881474852561951
			],
			"scale":[
				0.9999998807907104,
				1,
				0.9999998807907104
			],
			"translation":[
				6.752088665962219e-08,
				0.36507076025009155,
				3.725290298461914e-09
			]
		},
		{
			"children":[
				19
			],
			"name":"LeftForeArm",
			"rotation":[
				0.06094667315483093,
				0.013215580023825169,
				-0.015787359327077866,
				0.9979286789894104
			],
			"scale":[
				0.9999998807907104,
				1,
				1
			],
			"translation":[
				1.1573138181120157e-07,
				0.5143589973449707,
				-5.587935447692871e-09
			]
		},
		{
			"children":[
				20
			],
			"name":"LeftArm",
			"rotation":[
				0.14530375599861145,
				0.70318603515625,
				0.10166274011135101,
				0.6885353326797485
			],
			"scale":[
				1,
				0.9999998211860657,
				0.9999998807907104
			],
			"translation":[
				-7.450580596923828e-09,
				0.17930951714515686,
				-3.55415977537632e-07
			]
		},
		{
			"children":[
				21
			],
			"name":"LeftShoulder",
			"rotation":[
				-0.6128491163253784,
				-0.35169297456741333,
				-0.5761502981185913,
				0.410827100276947
			],
			"scale":[
				0.9999999403953552,
				0.9999999403953552,
				0.9999998807907104
			],
			"translation":[
				0.08828002214431763,
				0.2127913236618042,
				0.052277565002441406
			]
		},
		{
			"name":"RightHandIndex3",
			"rotation":[
				-0.09924367815256119,
				-0.02202507108449936,
				-0.010928518138825893,
				0.9947593808174133
			],
			"scale":[
				1,
				1,
				1.0000001192092896
			],
			"translation":[
				0,
				0.103366419672966,
				7.776543498039246e-08
			]
		},
		{
			"children":[
				23
			],
			"name":"RightHandIndex2",
			"rotation":[
				-0.05512251704931259,
				0.06951626390218735,
				0.046320147812366486,
				0.9949791431427002
			],
			"scale":[
				0.9999999403953552,
				0.9999999403953552,
				1.0000001192092896
			],
			"translation":[
				2.0489096641540527e-08,
				0.0891546681523323,
				1.9231811165809631e-07
			]
		},
		{
			"children":[
				24
			],
			"name":"RightHandIndex1",
			"rotation":[
				-0.07728525996208191,
				-0.07735644280910492,
				-0.0002022644766839221,
				0.9940034747123718
			],
			"scale":[
				1,
				0.9999999403953552,
				1
			],
			"translation":[
				7.916241884231567e-09,
				0.12440164387226105,
				1.6298145055770874e-08
			]
		},
		{
			"name":"RightHandThumb2",
			"rotation":[
				-0.17208658158779144,
				-0.015602508559823036,
				0.07140390574932098,
				0.982366681098938
			],
			"scale":[
				0.9999999403953552,
				0.9999998807907104,
				0.9999999403953552
			],
			"translation":[
				1.043081283569336e-07,
				0.10562475025653839,
				1.601874828338623e-07
			]
		},
		{
			"children":[
				26
			],
			"name":"RightHandThumb1",
			"rotation":[
				0.3586675226688385,
				-0.7254486680030823,
				0.45212608575820923,
				0.3750518262386322
			],
			"scale":[
				1.0000001192092896,
				1.0000003576278687,
				1.0000001192092896
			],
			"translation":[
				-0.061753395944833755,
				0.07430149614810944,
				-0.020962094888091087
			]
		},
		{
			"children":[
				25,
				27
			],
			"name":"RightHand",
			"rotation":[
				0.017950285226106644,
				0.10939529538154602,
				-0.04909441992640495,
				0.9926228523254395
			],
			"scale":[
				0.9999999403953552,
				1.0000001192092896,
				1.0000001192092896
			],
			"translation":[
				1.4901161193847656e-08,
				0.36507055163383484,
				-1.3690441846847534e-07
			]
		},
		{
			"children":[
				28
			],
			"name":"RightForeArm",
			"rotation":[
				-0.015052585862576962,
				-0.11004484444856644,
				0.061132460832595825,
				0.9919306635856628
			],
			"scale":[
				0.9999998807907104,
				0.9999998807907104,
				0.9999999403953552
			],
			"translation":[
				-7.450580596923828e-09,
				0.5143589973449707,
				1.5832483768463135e-08
			]
		},
		{
			"children":[
				29
			],
			"name":"RightArm",
			"rotation":[
				-0.0014117989921942353,
				-0.955563485622406,
				0.1773318499326706,
				0.2354779690504074
			],
			"scale":[
				0.9999999403953552,
				1.000000238418579,
				0.9999998211860657
			],
			"translation":[
				-6.51925802230835e-08,
				0.17930945754051208,
				1.341104507446289e-07
			]
		},
		{
			"children":[
				30
			],
			"name":"RightShoulder",
			"rotation":[
				0.6910271048545837,
				-0.47499701380729675,
				0.4795984625816345,
				0.2585434913635254
			],
			"scale":[
				0.9999998211860657,
				0.9999998807907104,
				1
			],
			"translation":[
				-0.0882800742983818,
				0.2127913236618042,
				0.052277520298957825
			]
		},
		{
			"children":[
				13,
				22,
				31
			],
			"name":"UpperChest",
			"rotation":[
				0.03746339678764343,
				-1.074798128102017e-12,
				8.931973383141667e-09,
				0.9992980360984802
			],
			"scale":[
				1,
				1,
				0.9999998807907104
			],
			"translation":[
				-4.895905902913e-11,
				0.2596140205860138,
				3.967117301328926e-09
			]
		},
		{
			"children":[
				32
			],
			"name":"Chest",
			"rotation":[
				-0.025739973410964012,
				2.5214916377080954e-07,
				1.5507518824620092e-08,
				0.9996686577796936
			],
			"scale":[
				1,
				1,
				1.0000001192092896
			],
			"translation":[
				-1.0552270168773248e-10,
				0.21135661005973816,
				7.178291294707151e-09
			]
		},
		{
			"children":[
				33
			],
			"name":"Spine",
			"rotation":[
				-0.032124269753694534,
				-1.3382059194100293e-07,
				-1.0712424725056735e-08,
				0.9994838833808899
			],
			"scale":[
				1,
				0.9999999403953552,
				1
			],
			"translation":[
				-1.5990044358038524e-11,
				0.32195180654525757,
				4.1515402227076947e-13
			]
		},
		{
			"name":"LeftToes",
			"rotation":[
				-0.019819656386971474,
				0.952286422252655,
				-0.2982551157474518,
				0.061657629907131195
			],
			"scale":[
				0.9999998807907104,
				0.9999996423721313,
				0.9999998807907104
			],
			"translation":[
				5.21540641784668e-08,
				0.3012542128562927,
				1.4901161193847656e-08
			]
		},
		{
			"children":[
				35
			],
			"name":"LeftFoot",
			"rotation":[
				-0.5154160857200623,
				-0.07199288159608841,
				-0.06695052981376648,
				0.8512819409370422
			],
			"scale":[
				0.9999999403953552,
				1,
				1
			],
			"translation":[
				2.0023435354232788e-08,
				0.7308666706085205,
				-7.450580596923828e-09
			]
		},
		{
			"children":[
				36
			],
			"name":"LeftLeg",
			"rotation":[
				0.043013595044612885,
				0.059716977179050446,
				0.07072196900844574,
				0.9947774410247803
			],
			"scale":[
				1,
				1,
				1.0000001192092896
			],
			"translation":[
				-1.8102582544088364e-08,
				0.5714235305786133,
				-3.725290298461914e-09
			]
		},
		{
			"children":[
				37
			],
			"name":"LeftUpLeg",
			"rotation":[
				-0.9932994246482849,
				-0.10545606166124344,
				0.020650753751397133,
				0.0425301231443882
			],
			"scale":[
				1.0000056028366089,
				1.0000003576278687,
				1.000001072883606
			],
			"translation":[
				0.13438333570957184,
				0.08425192534923553,
				8.201156020959388e-08
			]
		},
		{
			"name":"RightToes",
			"rotation":[
				-0.02826279029250145,
				-0.953940749168396,
				0.29757410287857056,
				0.025452803820371628
			],
			"scale":[
				1,
				1.000000238418579,
				1.000000238418579
			],
			"translation":[
				3.841705620288849e-08,
				0.301254004240036,
				-3.725290298461914e-09
			]
		},
		{
			"children":[
				39
			],
			"name":"RightFoot",
			"rotation":[
				-0.5173519849777222,
				0.10017600655555725,
				0.04982525855302811,
				0.8484274744987488
			],
			"scale":[
				0.9999999403953552,
				1,
				0.9999998807907104
			],
			"translation":[
				-5.587935447692871e-09,
				0.730866551399231,
				-5.587935447692871e-09
			]
		},
		{
			"children":[
				40
			],
			"name":"RightLeg",
			"rotation":[
				0.03415115922689438,
				0.060944925993680954,
				-0.07540199160575867,
				0.994702935218811
			],
			"scale":[
				0.9999999403953552,
				0.9999998807907104,
				0.9999999403953552
			],
			"translation":[
				2.0721927285194397e-08,
				0.5714234709739685,
				-1.4901161193847656e-08
			]
		},
		{
			"children":[
				41
			],
			"name":"RightUpLeg",
			"rotation":[
				-0.9885144829750061,
				0.09954305738210678,
				0.09954562783241272,
				0.05496321991086006
			],
			"scale":[
				1.0000057220458984,
				1.0000003576278687,
				1.0000011920928955
			],
			"translation":[
				-0.13438335061073303,
				0.08425193279981613,
				8.190204425773118e-08
			]
		},
		{
			"children":[
				34,
				38,
				42
			],
			"name":"Hips",
			"rotation":[
				9.301459067501128e-05,
				-2.638307989855093e-07,
				0.999998927116394,
				0.00144306814763695
			],
			"scale":[
				1.0000040531158447,
				1,
				0.9999999403953552
			],
			"translation":[
				0.000464598648250103,
				0.32195109128952026,
				-4.3881556166525115e-08
			]
		},
		{
			"children":[
				43
			],
			"name":"HipsCtrl",
			"rotation":[
				-9.301542741013691e-05,
				1.0731828758991924e-08,
				-0.9999989867210388,
				0.0014430714072659612
			],
			"scale":[
				0.9999999403953552,
				0.9999998807907104,
				1
			],
			"translation":[
				0.0005543182487599552,
				1.7208877801895142,
				0.06887967884540558
			]
		},
		{
			"mesh":0,
			"name":"characterLargeMale",
			"skin":0
		},
		{
			"children":[
				45,
				5,
				11,
				44
			],
			"name":"Root"
		}
	],
	"materials":[
		{
			"doubleSided":true,
			"name":"skin",
			"pbrMetallicRoughness":{
				"baseColorFactor":[
					0.800000011920929,
					0.800000011920929,
					0.800000011920929,
					1
				],
				"metallicFactor":0,
				"roughnessFactor":0.5
			}
		}
	],
	"meshes":[
		{
			"name":"characterLargeMale",
			"primitives":[
				{
					"attributes":{
						"POSITION":0,
						"NORMAL":1,
						"TEXCOORD_0":2,
						"TANGENT":3,
						"JOINTS_0":4,
						"WEIGHTS_0":5
					},
					"indices":6,
					"material":0
				}
			]
		}
	],
	"skins":[
		{
			"inverseBindMatrices":7,
			"joints":[
				5,
				2,
				1,
				0,
				3,
				4,
				11,
				8,
				7,
				6,
				9,
				10,
				44,
				43,
				34,
				33,
				32,
				13,
				12,
				22,
				21,
				20,
				19,
				16,
				15,
				14,
				18,
				17,
				31,
				30,
				29,
				28,
				25,
				24,
				23,
				27,
				26,
				38,
				37,
				36,
				35,
				42,
				41,
				40,
				39
			],
			"name":"Root"
		}
	],
	"accessors":[
		{
			"bufferView":0,
			"componentType":5126,
			"count":1131,
			"max":[
				1.5347563028335571,
				3.0932600498199463,
				0.35241690278053284
			],
			"min":[
				-1.5340306758880615,
				0.01052485965192318,
				-0.21077123284339905
			],
			"type":"VEC3"
		},
		{
			"bufferView":1,
			"componentType":5126,
			"count":1131,
			"type":"VEC3"
		},
		{
			"bufferView":2,
			"componentType":5126,
			"count":1131,
			"type":"VEC2"
		},
		{
			"bufferView":3,
			"componentType":5126,
			"count":1131,
			"type":"VEC4"
		},
		{
			"bufferView":4,
			"componentType":5121,
			"count":1131,
			"type":"VEC4"
		},
		{
			"bufferView":5,
			"componentType":5126,
			"count":1131,
			"type":"VEC4"
		},
		{
			"bufferView":6,
			"componentType":5123,
			"count":5316,
			"type":"SCALAR"
		},
		{
			"bufferView":7,
			"componentType":5126,
			"count":45,
			"type":"MAT4"
		}
	],
	"bufferViews":[
		{
			"buffer":0,
			"byteLength":13572,
			"byteOffset":0,
			"target":34962
		},
		{
			"buffer":0,
			"byteLength":13572,
			"byteOffset":13572,
			"target":34962
		},
		{
			"buffer":0,
			"byteLength":9048,
			"byteOffset":27144,
			"target":34962
		},
		{
			"buffer":0,
			"byteLength":18096,
			"byteOffset":36192,
			"target":34962
		},
		{
			"buffer":0,
			"byteLength":4524,
			"byteOffset":54288,
			"target":34962
		},
		{
			"buffer":0,
			"byteLength":18096,
			"byteOffset":58812,
			"target":34962
		},
		{
			"buffer":0,
			"byteLength":10632,
			"byteOffset":76908,
			"target":34963
		},
		{
			"buffer":0,
			"byteLength":2880,
			"byteOffset":87540
		}
	],
	"buffers":[
		{
			"byteLength":90420,
			"uri":"characterLargeMale-c00b097e644549a565e15194f8646b5e.bin"
		}
	]
}
