{
	"asset":{
		"generator":"Khronos glTF Blender I/O v4.5.48",
		"version":"2.0"
	},
	"scene":0,
	"scenes":[
		{
			"name":"Scene",
			"nodes":[
				46
			]
		}
	],
	"nodes":[
		{
			"name":"LeftFootIK",
			"rotation":[
				-0.9461288452148438,
				0.02187083475291729,
				-0.07550258934497833,
				0.31410396099090576
			],
			"scale":[
				0.9999999403953552,
				1,
				1.0000001192092896
			],
			"translation":[
				-0.001821371610276401,
				0.24152176082134247,
				0.18004992604255676
			]
		},
		{
			"children":[
				0
			],
			"name":"LeftToeRoll",
			"rotation":[
				-0.015735862776637077,
				0.0020790696144104004,
				-0.9946247339248657,
				0.10232176631689072
			],
			"scale":[
				0.999998152256012,
				0.9999998211860657,
				0.9999999403953552
			],
			"translation":[
				-0.028664298355579376,
				0.30693283677101135,
				0.001042533083818853
			]
		},
		{
			"children":[
				1
			],
			"name":"LeftHeelRoll",
			"rotation":[
				0.5075129270553589,
				-0.5082271695137024,
				0.49190735816955566,
				0.49210065603256226
			],
			"scale":[
				1,
				1.0000001192092896,
				1.0000001192092896
			],
			"translation":[
				0.07085257768630981,
				0.17990142107009888,
				-0.022240428254008293
			]
		},
		{
			"name":"LeftFootRollCtrl",
			"rotation":[
				0.49999988079071045,
				0.5000001192092896,
				-0.5000000596046448,
				0.4999999403953552
			],
			"scale":[
				1,
				0.9999999403953552,
				1
			],
			"translation":[
				7.559233239362584e-10,
				-5.613605580379044e-08,
				-1.186428177923915e-10
			]
		},
		{
			"name":"LeftKneeCtrl",
			"rotation":[
				0.7071065902709961,
				-1.251332690799245e-07,
				-0.7071069478988647,
				0
			],
			"translation":[
				-0.6179578304290771,
				-0.5867005586624146,
				0.0258870217949152
			]
		},
		{
			"children":[
				2,
				3,
				4
			],
			"name":"LeftFootCtrl",
			"rotation":[
				0.7071066498756409,
				-5.5601550030814906e-08,
				-0.70710688829422,
				4.887418469934346e-08
			],
			"scale":[
				1,
				0.9999999403953552,
				1
			],
			"translation":[
				0.3028550148010254,
				0.19320479035377502,
				-0.1488099992275238
			]
		},
		{
			"name":"RightFootIK",
			"rotation":[
				-0.948111891746521,
				-0.011444971896708012,
				0.044093139469623566,
				0.31465643644332886
			],
			"scale":[
				1.0000001192092896,
				0.9999999403953552,
				0.9999997615814209
			],
			"translation":[
				0.0018213947769254446,
				0.24152174592018127,
				0.18004995584487915
			]
		},
		{
			"children":[
				6
			],
			"name":"RightToeRoll",
			"rotation":[
				0.015675822272896767,
				0.0011526052840054035,
				0.9946256875991821,
				0.10233666747808456
			],
			"scale":[
				0.9999934434890747,
				0.9999998807907104,
				1
			],
			"translation":[
				0.028672898188233376,
				0.30693283677101135,
				-0.0007687042816542089
			]
		},
		{
			"children":[
				7
			],
			"name":"RightHeelRoll",
			"rotation":[
				0.5076862573623657,
				-0.5079014897346497,
				0.49172845482826233,
				0.4924367368221283
			],
			"translation":[
				0.0708526000380516,
				0.17990143597126007,
				0.022240402176976204
			]
		},
		{
			"name":"RightFootRollCtrl",
			"rotation":[
				0.49999988079071045,
				0.5000001192092896,
				-0.5000000596046448,
				0.4999999403953552
			],
			"scale":[
				1,
				0.9999999403953552,
				1
			],
			"translation":[
				5.238964817522174e-09,
				-4.461990243953551e-08,
				-1.186428177923915e-10
			]
		},
		{
			"name":"RightKneeCtrl",
			"rotation":[
				0.7071065902709961,
				-1.251332690799245e-07,
				-0.7071069478988647,
				0
			],
			"translation":[
				-0.6179578304290771,
				-0.5867005586624146,
				-0.029198219999670982
			]
		},
		{
			"children":[
				8,
				9,
				10
			],
			"name":"RightFootCtrl",
			"rotation":[
				0.7071066498756409,
				-5.5601550030814906e-08,
				-0.70710688829422,
				4.887418469934346e-08
			],
			"scale":[
				1,
				0.9999999403953552,
				1
			],
			"translation":[
				-0.30237263441085815,
				0.19320479035377502,
				-0.1488099992275238
			]
		},
		{
			"name":"Head",
			"rotation":[
				-0.07413527369499207,
				-2.3471284662482557e-14,
				1.8760651110280536e-15,
				0.9972481727600098
			],
			"scale":[
				1,
				0.9999998807907104,
				0.9999999403953552
			],
			"translation":[
				1.3701315255965074e-11,
				0.2780092656612396,
				-8.381578986416116e-09
			]
		},
		{
			"children":[
				12
			],
			"name":"Neck",
			"rotation":[
				0.07661574333906174,
				-2.541473975714581e-13,
				-3.6255770521215203e-12,
				0.9970607161521912
			],
			"scale":[
				1,
				1,
				0.9999999403953552
			],
			"translation":[
				2.301301510465592e-12,
				0.2708642780780792,
				-5.682059267542172e-10
			]
		},
		{
			"name":"LeftHandIndex3",
			"rotation":[
				0.030971676111221313,
				-0.030524253845214844,
				0.0008921570261009037,
				0.9990536570549011
			],
			"scale":[
				0.9999999403953552,
				1.0000001192092896,
				0.9999999403953552
			],
			"translation":[
				-7.450580596923828e-09,
				0.10213036090135574,
				-1.778826117515564e-07
			]
		},
		{
			"children":[
				14
			],
			"name":"LeftHandIndex2",
			"rotation":[
				0.08137375861406326,
				0.06692219525575638,
				-0.0006391023634932935,
				0.9944341778755188
			],
			"scale":[
				0.9999998807907104,
				1,
				0.9999999403953552
			],
			"translation":[
				1.1175870895385742e-08,
				0.11282134056091309,
				2.046581357717514e-07
			]
		},
		{
			"children":[
				15
			],
			"name":"LeftHandIndex1",
			"rotation":[
				0.05672738328576088,
				-0.07746504992246628,
				0.0001485381362726912,
				0.9953799247741699
			],
			"scale":[
				1,
				1,
				0.9999999403953552
			],
			"translation":[
				-9.313225746154785e-10,
				0.13859976828098297,
				1.2991949915885925e-07
			]
		},
		{
			"name":"LeftHandThumb2",
			"rotation":[
				0.20120005309581757,
				-0.01349341869354248,
				0.0039301528595387936,
				0.9794493913650513
			],
			"scale":[
				0.9999999403953552,
				0.9999999403953552,
				0.9999998807907104
			],
			"translation":[
				1.043081283569336e-07,
				0.10586756467819214,
				-3.725290298461914e-09
			]
		},
		{
			"children":[
				17
			],
			"name":"LeftHandThumb1",
			"rotation":[
				-0.3360726237297058,
				0.6307119131088257,
				0.4469285309314728,
				0.5380637049674988
			],
			"scale":[
				1,
				1.0000001192092896,
				1
			],
			"translation":[
				-0.06514833867549896,
				0.05098101869225502,
				0.002445690333843231
			]
		},
		{
			"children":[
				16,
				18
			],
			"name":"LeftHand",
			"rotation":[
				-0.026546774432063103,
				0.724739670753479,
				-0.02130819298326969,
				0.6881814002990723
			],
			"scale":[
				0.9999998807907104,
				0.9999996423721313,
				0.9999998807907104
			],
			"translation":[
				-4.1176099330186844e-07,
				0.5272276997566223,
				-2.2351741790771484e-08
			]
		},
		{
			"children":[
				19
			],
			"name":"LeftForeArm",
			"rotation":[
				0.04676153138279915,
				0.012573270127177238,
				0.005446290131658316,
				0.9988121390342712
			],
			"scale":[
				0.9999999403953552,
				1,
				1
			],
			"translation":[
				3.0337105272337794e-07,
				0.47077491879463196,
				-1.3969838619232178e-09
			]
		},
		{
			"children":[
				20
			],
			"name":"LeftArm",
			"rotation":[
				0.08389003574848175,
				0.7108129262924194,
				0.061310332268476486,
				0.6956640481948853
			],
			"scale":[
				1,
				0.9999999403953552,
				1
			],
			"translation":[
				5.587935447692871e-09,
				0.25880134105682373,
				2.2715539671480656e-07
			]
		},
		{
			"children":[
				21
			],
			"name":"LeftShoulder",
			"rotation":[
				-0.5868821740150452,
				-0.4106534421443939,
				-0.5482946634292603,
				0.4316318929195404
			],
			"scale":[
				0.9999997615814209,
				0.9999998211860657,
				0.9999998807907104
			],
			"translation":[
				0.08828003704547882,
				0.2810816466808319,
				0.06496106088161469
			]
		},
		{
			"name":"RightHandIndex3",
			"rotation":[
				-0.030973847955465317,
				-0.030523022636771202,
				-0.0008921929984353483,
				0.9990536570549011
			],
			"scale":[
				0.9999999403953552,
				0.9999998807907104,
				1
			],
			"translation":[
				-7.450580596923828e-09,
				0.10213065892457962,
				2.474989742040634e-07
			]
		},
		{
			"children":[
				23
			],
			"name":"RightHandIndex2",
			"rotation":[
				-0.08137267827987671,
				0.06692127883434296,
				0.0006392492796294391,
				0.9944343566894531
			],
			"scale":[
				0.9999998211860657,
				0.9999999403953552,
				0.9999998211860657
			],
			"translation":[
				-9.313225746154785e-09,
				0.11282151937484741,
				2.8475187718868256e-07
			]
		},
		{
			"children":[
				24
			],
			"name":"RightHandIndex1",
			"rotation":[
				-0.05672726407647133,
				-0.07746363431215286,
				-0.0001484705280745402,
				0.9953800439834595
			],
			"scale":[
				1,
				1,
				0.9999999403953552
			],
			"translation":[
				1.210719347000122e-08,
				0.13859976828098297,
				6.542541086673737e-08
			]
		},
		{
			"name":"RightHandThumb2",
			"rotation":[
				-0.19090288877487183,
				-0.02567141130566597,
				0.06366157531738281,
				0.9792059659957886
			],
			"scale":[
				0.9999999403953552,
				0.9999999403953552,
				1.0000001192092896
			],
			"translation":[
				-2.9802322387695312e-08,
				0.10586772859096527,
				-5.960464477539063e-08
			]
		},
		{
			"children":[
				26
			],
			"name":"RightHandThumb1",
			"rotation":[
				0.35837411880493164,
				-0.7295985817909241,
				0.42925214767456055,
				0.39369598031044006
			],
			"translation":[
				-0.06391925364732742,
				0.05098114162683487,
				-0.01283024437725544
			]
		},
		{
			"children":[
				25,
				27
			],
			"name":"RightHand",
			"rotation":[
				0.008204221725463867,
				0.00033306062687188387,
				-0.03303727135062218,
				0.9994204044342041
			],
			"scale":[
				0.9999999403953552,
				0.9999999403953552,
				1
			],
			"translation":[
				0,
				0.5272278189659119,
				1.494772732257843e-07
			]
		},
		{
			"children":[
				28
			],
			"name":"RightForeArm",
			"rotation":[
				0.000733693887013942,
				-0.004767493810504675,
				0.047071851789951324,
				0.9988798499107361
			],
			"translation":[
				-4.516914486885071e-08,
				0.4707748293876648,
				-1.7543788999319077e-07
			]
		},
		{
			"children":[
				29
			],
			"name":"RightArm",
			"rotation":[
				0.000935299729462713,
				-0.9648765325546265,
				0.10390216112136841,
				0.24128149449825287
			],
			"scale":[
				1.0000001192092896,
				0.9999995827674866,
				1
			],
			"translation":[
				-3.818422555923462e-08,
				0.2588014304637909,
				-4.470348358154297e-08
			]
		},
		{
			"children":[
				30
			],
			"name":"RightShoulder",
			"rotation":[
				0.6583795547485352,
				-0.5076110363006592,
				0.45999354124069214,
				0.311886727809906
			],
			"translation":[
				-0.08828005939722061,
				0.2810816466808319,
				0.06496106088161469
			]
		},
		{
			"children":[
				13,
				22,
				31
			],
			"name":"UpperChest",
			"rotation":[
				0.04916578531265259,
				-3.8278920506430725e-13,
				-1.90026996688044e-14,
				0.9987906217575073
			],
			"scale":[
				1,
				1.0000001192092896,
				1
			],
			"translation":[
				4.4373172128873983e-13,
				0.305276483297348,
				-1.862678011832486e-08
			]
		},
		{
			"children":[
				32
			],
			"name":"Chest",
			"rotation":[
				0.011894640512764454,
				9.999340022659453e-09,
				1.1040929948080702e-08,
				0.9999293088912964
			],
			"scale":[
				1,
				0.9999998211860657,
				0.9999999403953552
			],
			"translation":[
				-9.23643106442995e-13,
				0.28704869747161865,
				2.0949608270370845e-08
			]
		},
		{
			"children":[
				33
			],
			"name":"Spine",
			"rotation":[
				-0.061042577028274536,
				-1.0545783801774178e-08,
				-1.0392151139626549e-08,
				0.9981351494789124
			],
			"scale":[
				1,
				0.9999999403953552,
				1
			],
			"translation":[
				-5.046533069902326e-12,
				0.32195159792900085,
				7.755615039073405e-10
			]
		},
		{
			"name":"LeftToes",
			"rotation":[
				-0.019818030297756195,
				0.9522867798805237,
				-0.29825517535209656,
				0.06165172904729843
			],
			"translation":[
				2.7474015951156616e-08,
				0.3012539744377136,
				9.313225746154785e-10
			]
		},
		{
			"children":[
				35
			],
			"name":"LeftFoot",
			"rotation":[
				-0.5544406771659851,
				-0.04671424254775047,
				-0.06019202247262001,
				0.8287281394004822
			],
			"scale":[
				0.9999999403953552,
				0.9999998807907104,
				0.9999998807907104
			],
			"translation":[
				4.17931005358696e-08,
				0.60881108045578,
				1.199805410578847e-08
			]
		},
		{
			"children":[
				36
			],
			"name":"LeftLeg",
			"rotation":[
				0.11421696096658707,
				0.032576460391283035,
				0.04264094680547714,
				0.9920055866241455
			],
			"scale":[
				0.9999999403953552,
				0.9999998807907104,
				1
			],
			"translation":[
				-2.1391315385699272e-08,
				0.5261740684509277,
				-1.1641532182693481e-09
			]
		},
		{
			"children":[
				37
			],
			"name":"LeftUpLeg",
			"rotation":[
				-0.997211217880249,
				-0.06940367817878723,
				0.021053431555628777,
				0.017598122358322144
			],
			"scale":[
				1.0000170469284058,
				1.0000004768371582,
				1.000001311302185
			],
			"translation":[
				0.2015291154384613,
				0.05846342444419861,
				7.509206056965922e-08
			]
		},
		{
			"name":"RightToes",
			"rotation":[
				-0.028260696679353714,
				-0.9539411664009094,
				0.29757362604141235,
				0.025447694584727287
			],
			"scale":[
				1,
				1.000000238418579,
				1
			],
			"translation":[
				-2.561137080192566e-09,
				0.30125439167022705,
				-1.210719347000122e-08
			]
		},
		{
			"children":[
				39
			],
			"name":"RightFoot",
			"rotation":[
				-0.5561155676841736,
				0.07450243830680847,
				0.042006511241197586,
				0.8266924619674683
			],
			"scale":[
				1,
				0.9999999403953552,
				0.9999999403953552
			],
			"translation":[
				7.450580596923828e-09,
				0.6088118553161621,
				-1.1961674317717552e-08
			]
		},
		{
			"children":[
				40
			],
			"name":"RightLeg",
			"rotation":[
				0.11216975748538971,
				0.011556817218661308,
				-0.04776930436491966,
				0.9924728870391846
			],
			"scale":[
				1,
				1.0000001192092896,
				1
			],
			"translation":[
				-1.8044374883174896e-09,
				0.526174008846283,
				-7.450580596923828e-09
			]
		},
		{
			"children":[
				41
			],
			"name":"RightUpLeg",
			"rotation":[
				-0.9971517324447632,
				0.06854354590177536,
				0.023705551400780678,
				0.02069445140659809
			],
			"scale":[
				0.9999956488609314,
				1,
				0.9999996423721313
			],
			"translation":[
				-0.2015291005373001,
				0.05846342816948891,
				7.520936406990586e-08
			]
		},
		{
			"children":[
				34,
				38,
				42
			],
			"name":"Hips",
			"rotation":[
				9.301443060394377e-05,
				-2.664747000835632e-07,
				0.999998927116394,
				0.0014430693117901683
			],
			"scale":[
				1.0000040531158447,
				1,
				0.9999998807907104
			],
			"translation":[
				0.0004645995213650167,
				0.3219510018825531,
				-4.6911416973216546e-08
			]
		},
		{
			"children":[
				43
			],
			"name":"HipsCtrl",
			"rotation":[
				-9.301512909587473e-05,
				3.6197231878531966e-08,
				-0.9999989867210388,
				0.0014430718729272485
			],
			"scale":[
				0.9999999403953552,
				1.000000238418579,
				1
			],
			"translation":[
				-0.00022340875875670463,
				1.5641721487045288,
				0.031240254640579224
			]
		},
		{
			"mesh":0,
			"name":"characterMedium",
			"skin":0
		},
		{
			"children":[
				45,
				5,
				11,
				44
			],
			"name":"Root"
		}
	],
	"materials":[
		{
			"doubleSided":true,
			"name":"skin",
			"pbrMetallicRoughness":{
				"baseColorFactor":[
					0.800000011920929,
					0.800000011920929,
					0.800000011920929,
					1
				],
				"metallicFactor":0,
				"roughnessFactor":0.5
			}
		}
	],
	"meshes":[
		{
			"name":"characterMedium",
			"primitives":[
				{
					"attributes":{
						"POSITION":0,
						"NORMAL":1,
						"TEXCOORD_0":2,
						"TANGENT":3,
						"JOINTS_0":4,
						"WEIGHTS_0":5
					},
					"indices":6,
					"material":0
				}
			]
		}
	],
	"skins":[
		{
			"inverseBindMatrices":7,
			"joints":[
				5,
				2,
				1,
				0,
				3,
				4,
				11,
				8,
				7,
				6,
				9,
				10,
				44,
				43,
				34,
				33,
				32,
				13,
				12,
				22,
				21,
				20,
				19,
				16,
				15,
				14,
				18,
				17,
				31,
				30,
				29,
				28,
				25,
				24,
				23,
				27,
				26,
				38,
				37,
				36,
				35,
				42,
				41,
				40,
				39
			],
			"name":"Root"
		}
	],
	"accessors":[
		{
			"bufferView":0,
			"componentType":5126,
			"count":1029,
			"max":[
				1.809532642364502,
				3.7653701305389404,
				0.5142357349395752
			],
			"min":[
				-1.80905020236969,
				0.0006841139402240515,
				-0.5339080095291138
			],
			"type":"VEC3"
		},
		{
			"bufferView":1,
			"componentType":5126,
			"count":1029,
			"type":"VEC3"
		},
		{
			"bufferView":2,
			"componentType":5126,
			"count":1029,
			"type":"VEC2"
		},
		{
			"bufferView":3,
			"componentType":5126,
			"count":1029,
			"type":"VEC4"
		},
		{
			"bufferView":4,
			"componentType":5121,
			"count":1029,
			"type":"VEC4"
		},
		{
			"bufferView":5,
			"componentType":5126,
			"count":1029,
			"type":"VEC4"
		},
		{
			"bufferView":6,
			"componentType":5123,
			"count":4812,
			"type":"SCALAR"
		},
		{
			"bufferView":7,
			"componentType":5126,
			"count":45,
			"type":"MAT4"
		}
	],
	"bufferViews":[
		{
			"buffer":0,
			"byteLength":12348,
			"byteOffset":0,
			"target":34962
		},
		{
			"buffer":0,
			"byteLength":12348,
			"byteOffset":12348,
			"target":34962
		},
		{
			"buffer":0,
			"byteLength":8232,
			"byteOffset":24696,
			"target":34962
		},
		{
			"buffer":0,
			"byteLength":16464,
			"byteOffset":32928,
			"target":34962
		},
		{
			"buffer":0,
			"byteLength":4116,
			"byteOffset":49392,
			"target":34962
		},
		{
			"buffer":0,
			"byteLength":16464,
			"byteOffset":53508,
			"target":34962
		},
		{
			"buffer":0,
			"byteLength":9624,
			"byteOffset":69972,
			"target":34963
		},
		{
			"buffer":0,
			"byteLength":2880,
			"byteOffset":79596
		}
	],
	"buffers":[
		{
			"byteLength":82476,
			"uri":"characterMedium-d5282d06725b2ba32abc428514c47b33.bin"
		}
	]
}
