{
	"asset":{
		"generator":"Khronos glTF Blender I/O v4.5.48",
		"version":"2.0"
	},
	"scene":0,
	"scenes":[
		{
			"name":"Scene",
			"nodes":[
				0
			]
		}
	],
	"nodes":[
		{
			"mesh":0,
			"name":"sphere_selection.003"
		}
	],
	"materials":[
		{
			"alphaCutoff":0.05000000074505806,
			"alphaMode":"MASK",
			"doubleSided":true,
			"name":"Material_3",
			"pbrMetallicRoughness":{
				"baseColorTexture":{
					"index":0
				},
				"metallicFactor":0
			}
		}
	],
	"meshes":[
		{
			"name":"Mesh_40",
			"primitives":[
				{
					"attributes":{
						"POSITION":0,
						"NORMAL":1,
						"TEXCOORD_0":2,
						"TANGENT":3
					},
					"indices":4,
					"material":0
				}
			]
		}
	],
	"textures":[
		{
			"sampler":0,
			"source":0
		}
	],
	"images":[
		{
			"mimeType":"image/png",
			"name":"Image_3",
			"uri":"../../Assets/textures/Image_3.png"
		}
	],
	"accessors":[
		{
			"bufferView":0,
			"componentType":5126,
			"count":406,
			"max":[
				0.39310550689697266,
				0.4053727388381958,
				0.22077132761478424
			],
			"min":[
				-0.2679991126060486,
				-0.3963606357574463,
				-0.19171573221683502
			],
			"type":"VEC3"
		},
		{
			"bufferView":1,
			"componentType":5126,
			"count":406,
			"type":"VEC3"
		},
		{
			"bufferView":2,
			"componentType":5126,
			"count":406,
			"type":"VEC2"
		},
		{
			"bufferView":3,
			"componentType":5126,
			"count":406,
			"type":"VEC4"
		},
		{
			"bufferView":4,
			"componentType":5123,
			"count":471,
			"type":"SCALAR"
		}
	],
	"bufferViews":[
		{
			"buffer":0,
			"byteLength":4872,
			"byteOffset":0,
			"target":34962
		},
		{
			"buffer":0,
			"byteLength":4872,
			"byteOffset":4872,
			"target":34962
		},
		{
			"buffer":0,
			"byteLength":3248,
			"byteOffset":9744,
			"target":34962
		},
		{
			"buffer":0,
			"byteLength":6496,
			"byteOffset":12992,
			"target":34962
		},
		{
			"buffer":0,
			"byteLength":942,
			"byteOffset":19488,
			"target":34963
		}
	],
	"samplers":[
		{
			"magFilter":9728,
			"minFilter":9984,
			"wrapS":33071,
			"wrapT":33071
		}
	],
	"buffers":[
		{
			"byteLength":20432,
			"uri":"Mask-f51a586c762757489f59aafb0bb7cebd.bin"
		}
	]
}
